<?xml version="1.0" encoding="utf-8"?>
<!-- Generator: Adobe Illustrator 16.2.0, SVG Export Plug-In . SVG Version: 6.00 Build 0)  -->
<!DOCTYPE svg PUBLIC "-//W3C//DTD SVG 1.1//EN" "http://www.w3.org/Graphics/SVG/1.1/DTD/svg11.dtd">
<svg version="1.1" id="Layer_1" xmlns="http://www.w3.org/2000/svg" xmlns:xlink="http://www.w3.org/1999/xlink" x="0px" y="0px"
	 width="194px" height="194px" viewBox="0 0 194 194" enable-background="new 0 0 194 194" xml:space="preserve">
<g>
	<path fill="#20323D" d="M164.966,149.073c0,2.649-2.12,4.506-4.505,4.506H65.064c-5.033,0-9.539,2.118-12.985,5.563
		c-3.18,3.181-5.033,7.153-5.298,11.926c2.649,1.586,5.83,2.648,9.538,2.648h99.636v-12.191c0-2.647,2.122-4.504,4.506-4.504
		c2.385,0,4.505,1.855,4.505,4.504v16.697c0,2.385-2.12,4.502-4.505,4.502H56.319c-7.684,0-14.309-3.178-19.344-7.949
		c-5.035-5.034-7.95-11.924-7.95-19.344V53.146c0-7.155,2.649-13.514,7.155-18.549c3.445-3.71,8.215-6.624,13.515-7.95V15.253
		c0-2.651,1.854-4.505,4.505-4.505h32.063c2.649,0,4.503,1.854,4.503,4.505v10.6h69.693c2.384,0,4.505,1.855,4.505,4.505v118.715
		H164.966z M155.955,144.568V34.863h-18.02v109.706H155.955L155.955,144.568z M129.191,34.863h-6.359v109.706h6.359V34.863z
		 M113.822,34.863H90.768v90.36c0,2.387-1.854,4.506-4.503,4.506c-1.327,0-2.651-0.793-3.445-1.855l-12.455-14.309L57.38,128.139
		c-1.59,1.854-4.24,2.121-6.094,0.266c-1.061-0.795-1.59-2.118-1.59-3.182v-89.3c-2.649,1.059-5.036,2.649-6.891,4.771
		c-3.179,3.444-4.769,7.684-4.769,12.454v102.286c0,2.651,0.529,5.035,1.324,7.153c1.325-3.708,3.71-7.153,6.36-9.804
		c5.035-5.033,11.923-8.215,19.344-8.215h48.758V34.863z M81.759,19.757H58.705v93.542l8.215-9.54l0.529-0.528
		c1.855-1.592,4.77-1.326,6.36,0.528l7.95,9.276V19.757z"/>
</g>
</svg>
