<svg width="297" height="387" viewBox="0 0 297 387" fill="none" xmlns="http://www.w3.org/2000/svg">
<path fill-rule="evenodd" clip-rule="evenodd" d="M27.9 334.6C27.2 332.3 26.7 330.3 26 328.3C23 319.3 22.5 310 22.9 300.6C23 298 23.3 295.4 23.6 292.7C23.9 290.1 24.2 287.5 24.7 284.9C25.3 282.2 26.1 279.6 26.8 276.9C27.3 275.1 27.9 273.4 28.4 271.6C29.2 268.8 30.3 266.2 31.6 263.6C34.5 258 37.9 252.7 41.4 247.4C42.3 246.1 43.3 244.8 44.3 243.6C46.6 240.9 49 238.3 50.9 235.2C51.9 233.6 53.4 232.2 54.8 230.8C59.7 226.2 64.3 221.3 68.4 216C71.7 211.7 74.7 207.3 76.7 202.2C78.7 197.1 81.2 192.1 83.4 187C86 181.1 87.4 174.7 88.4 168.4C89.5 161.4 90.4 154.3 91.3 147.3C92 142.1 92.5 136.8 93.1 131.6C94.1 122.5 96 113.7 99.2 105.1C101.3 99.4 103.2 93.7 105.2 88C105.5 87.3 105.7 86.5 106.1 85.8C110.7 76.8 115.2 67.7 121.4 59.6C123.9 56.3 126.5 53.2 129.6 50.6C132.7 48 135.8 45.2 139 42.7C144.8 38.1 151.4 34.8 158.2 31.9C161.7 30.4 165.2 28.9 168.8 27.6C180.1 23.4 191.8 21.1 204 21.6C205.6 21.7 207.2 21.8 208.7 22.1C216.4 23.6 224.2 25.1 231.7 27.4C237.2 29.1 242.2 31.6 246.8 35C254.1 40.5 260.5 47 264.9 55.1C267.6 60.2 269.6 65.6 270.2 71.5C270.8 76.9 271.7 82.2 271.8 87.6C272 96.4 271.9 105.2 270.3 114C269.5 118.1 269.1 122.3 267.9 126.4C267.6 127.6 267.6 128.7 268.3 129.8C268.8 130.7 269.3 131.7 269.6 132.7C271.2 139.7 272.8 146.8 274.4 153.9C275.8 160.1 276.1 166.4 275.5 172.8C275.1 177 274 181.1 270.9 184.3C270.1 185.2 269.3 186.1 268.6 187C268.8 187.4 268.9 187.8 269.1 188.1C274.1 196.3 275.6 205.2 274.8 214.7C274.7 215.5 274.8 216.3 274.5 217C272.5 223.1 270.8 229.4 267.3 234.9C263.2 241.4 257.8 246.5 251.6 250.8C244.6 255.7 237 259.1 228.7 261C222.9 262.3 217 262.8 211.1 263C203.2 263.2 195.3 263 187.5 261.5C183 260.6 178.5 259.6 174.2 257.8C172.4 257 170.5 256.4 168.5 255.7C168.1 256.6 167.6 257.2 167.4 257.9C166.4 261.2 165.5 264.5 164.6 267.8C164.3 268.8 164.2 269.9 164.2 270.9C164.4 278.3 163.3 285.6 162.7 292.9C162.6 294 162.5 295 162.6 296.1C162.9 304.4 162.5 312.7 161.6 320.9C160.8 328.3 159.1 335.4 155.7 342.1C155.1 343.3 154.5 344.4 153.7 345.5C151.3 348.9 148.3 351.7 143.9 352.4C142.5 355.4 139.9 357 136.9 357.8C130.9 359.4 124.9 360.4 118.6 359.6C116.1 359.3 114.2 358.1 112.2 357.1C111.8 357.2 111.4 357.2 111.3 357.4C109.2 360.1 106.4 361.8 103.3 363C100.9 363.9 98.3 364.8 95.7 365C90.6 365.5 85.5 365.9 80.3 365.2C74.7 364.5 69.2 363.1 63.7 361.7C59.3 360.6 54.8 359.4 50.4 358.2C49.5 358 48.6 357.8 47.8 357.3C44.1 354.8 40 352.8 37 349.4C36.8 349.1 36.3 349 35.8 348.7C32.5 350.8 29 352.6 25.9 355.1C24.1 356.5 22.8 358.2 21.7 360.3C20.2 363.4 20.6 366.2 22.7 368.8C24 370.4 25.7 371.8 27.3 373.1C28 373.7 28.9 373.9 29.8 374.2C34.1 375.3 38.5 376.1 43.1 376C45.2 375.9 47.3 375.8 49.4 375.7C49.9 375.7 50.4 375.8 50.8 375.8C50.9 376.7 50.4 376.9 49.9 377C45.1 378.5 40.2 379.4 35.1 379.5C31.1 379.6 27.3 378.7 23.7 376.7C20.7 375.1 17.5 373.8 14.8 371.6C13.9 370.9 12.9 370.1 12 369.4C9.40001 367.3 8.20001 364.4 8.00001 361.1C7.60001 355.3 9.20001 350.2 12.6 345.5C15.6 341.4 19.4 338.2 24.1 336.1C25.5 335.6 26.5 335.2 27.9 334.6ZM53.8 286.1C53.6 285.9 53.5 285.7 53.3 285.5C54.4 284.5 55.4 283.5 56.5 282.7C57.4 282 58.4 281.3 59.5 280.8C63.6 278.7 68 277.2 72.6 276.7C74.8 276.4 77.1 275.9 79.3 276.3C89.5 278.2 97.4 284.2 100.1 295.3C102.3 304.1 101.3 312.8 99.4 321.5C98.9 323.8 98.8 325.8 100.1 327.9C100.7 328.8 101.1 329.8 101.6 330.7C103.6 333.8 105.6 336.9 107.6 339.9C108.4 341.1 108.7 342.2 108.3 343.2C109.6 345.2 110.8 346.9 111.9 348.6C112.2 349 112.4 349.7 112.8 349.8C115.4 350.8 117.3 352.9 120.1 353.5C125.2 354.5 130.3 354.5 135.4 353.3C136.6 353 137.9 352.4 139 351.7C139.5 351.4 139.7 350.5 140 349.9C138.4 348.2 136.7 348.1 134.7 348.5C131.9 349 130.5 347.8 130.2 345C130 343 129.9 341.1 129.5 339.1C128.5 334.3 127.5 329.6 126.4 324.8C125.2 319.3 124.3 313.7 121.6 308.6C121.2 307.8 120.9 306.9 120.7 306C119.5 301.6 118.6 297 116.4 292.9C115.9 292 115.8 290.9 115.6 289.9C115.5 289.5 115 289 116 288.7C117.7 291.8 119.5 294.8 121.1 297.9C122.6 301 123.8 304.2 125.3 307.3C126.9 310.5 128.6 313.6 129.6 317C130.6 320.3 131.5 323.6 132.6 326.8C133.7 330.1 133.8 333.7 135.4 337.3C136 336.4 136.5 335.9 136.7 335.4C139.7 329.8 142.1 324 144.2 318C145.5 314.4 146.9 310.8 147.6 307.1C148.6 301.5 150.7 296.3 152.8 291C154.7 286.1 156.8 281.2 158.5 276.3C160.8 269.7 162.7 263 164.8 256.3C165 255.6 164.9 254.8 164.9 254.1C159.4 250.8 153.3 248.6 149.3 243.2C149.8 243.1 150.1 242.9 150.3 243C151.9 243.6 153.6 244.1 155 245C161.4 248.8 168.2 251.4 175.1 254.1C184 257.6 193.1 258.8 202.5 258.9C209 259 215.4 258.6 221.8 257.6C234.4 255.8 245.5 250.9 255.1 242.6C262.3 236.3 266.7 228.4 269.1 219.3C270.1 215.4 269.5 211.4 269.3 207.5C268.7 197.3 264.3 188.8 257 181.8C254.1 179.1 250.8 176.9 247.7 174.5C246.5 173.6 246.2 172.8 246.5 171.5C246.6 171.1 246.8 170.8 246.9 170.4C248.1 167.6 249.4 164.9 250.6 162.1C252.3 158.1 253.9 154.1 255.4 150C256.9 145.9 258.1 141.7 259.5 137.6C264 124.7 266.5 111.4 266.9 97.8C267.1 92.5 266.9 87.3 266.6 82C266.3 77.5 265.5 73.1 265 68.7C264.9 67.9 264.8 67.1 264.4 66.4C262.6 62.6 261.1 58.6 258.4 55.3C256.3 52.6 254 50.1 251.7 47.5C249.1 44.5 245.9 42.2 242.5 40.2C240.8 39.2 239.1 38.2 237.4 37.2C231.4 33.8 225.5 30.5 218.6 29.3C216.8 29 215 28.6 213.2 28.2C205.8 26.4 198.4 26.3 190.9 27.3C182.8 28.3 174.8 30.2 167.2 33.2C156 37.8 145 43 135.5 51C130.2 55.4 125.2 59.9 121.2 65.6C118.5 69.5 115.9 73.5 114.1 77.9C113.8 78.6 113.4 79.3 113.1 80C110.8 84.8 108.3 89.4 106.4 94.3C103.4 102.2 100.8 110.2 99.7 118.6C99.1 123.7 98.2 128.8 97.6 133.9C97 138.9 96.6 143.9 95.9 148.8C95 156 94 163.2 93 170.3C91.9 177.6 90.3 184.8 87.3 191.6C85 196.7 82.5 201.9 80.2 207C79.9 207.6 79.8 208.2 79.6 208.8C80.4 209.3 81.1 209.7 81.7 210.2C84.9 212.8 87.5 216.8 85.6 222C83.8 226.8 82.4 231.8 79.5 236.1C78.1 238.2 76.7 240.2 75.1 242.2C73.7 244 72.7 245.9 72.5 248.3C72.4 249.7 72.1 251.2 71.9 252.6C71.3 255.9 69.6 258.5 66.6 260C62.4 262.1 58.1 263.5 53.3 263.3C49.4 263.1 46.1 261.9 44 258.4C43.5 257.5 43 256.5 41.6 256.3C40.4 256.9 40 258.2 39.4 259.3C36.4 264.9 33.4 270.4 32.2 276.7C32.1 277.3 31.7 277.9 31.5 278.6C30.9 280.9 30.2 283.1 29.7 285.5C29.3 287.3 29.2 289.2 28.9 291C27 302.7 27.1 314.3 30.4 325.8C32.1 331.8 34.6 337.4 37.9 342.7C41.6 348.8 47 352.8 54.1 354.4C59.1 355.5 64.1 356.8 69.1 357.8C72.4 358.5 75.8 358.9 79.2 359.5C85.6 360.5 92.1 360.3 98.4 359.1C100.9 358.6 103.2 357.6 105.2 356.1C107.8 354.2 108 351.2 105.7 349C104.5 347.8 103.1 346.9 101.4 346.4C98.5 345.6 95.5 345 92.5 344.6C89.3 344.2 86.3 344 83.7 346.5C82.8 347.4 81.4 347.8 80 347C79.9 345.3 81.2 344.4 82.1 343.4C83.7 341.6 85.4 340 86.7 338C88.9 335 90.8 331.9 92.8 328.8C94.6 326.1 95.6 323.2 95.8 319.9C96 316.7 96.1 313.6 96.5 310.4C97 306.2 96.6 302 95.8 297.8C94.1 288.3 87.8 283 79.2 280C78.7 279.8 78.2 279.8 77.6 279.8C72.6 279.4 67.6 279.9 62.8 281.6C59.7 282.6 56.6 284 53.8 286.1ZM266 183.1C269.9 179.7 271.6 175.8 271.4 171.1C270.9 162.2 269.7 153.3 267.4 144.7C267 143.2 266.7 141.6 266.2 140.1C266 139.4 265.5 138.8 264.9 137.7C262.7 143.8 260.7 149.5 258.5 155.1C256.4 160.7 253.9 166.2 252 172C257.7 174.5 261.8 178.5 266 183.1ZM158.7 288.8C158.4 288.9 158.2 288.9 158.1 288.9C155.7 295 153.3 301.1 150.9 307.2C150.7 307.7 150.7 308.2 150.6 308.8C149.8 313.1 149.2 317.4 148 321.5C146.6 326.4 144.8 331.2 143.1 336C142 338.9 140.8 341.8 139.5 344.8C140.8 345.6 142 346.2 143.1 346.8C146.4 345.2 148.6 342.8 150.3 339.6C153.9 332.7 155.5 325.3 156.3 317.7C157.3 308.7 157.4 299.6 158.7 290.6C158.9 290.1 158.7 289.4 158.7 288.8ZM101.7 340.4C101.2 338.5 97.9 332.1 96.5 330.3C93.5 333.6 91.4 337 90.9 339.3C94.5 339.6 98.1 340 101.7 340.4Z" fill="#868686"/>
<path fill-rule="evenodd" clip-rule="evenodd" d="M216 351.9C221.7 352 227.3 351.6 232.9 350.5C236.7 349.7 240.8 349.8 244.7 349.6C247.5 349.4 250.2 350.1 252.5 351.9C254 353.1 255.7 353.5 257.7 353.5C261.3 353.6 264.7 354.4 268.1 355.7C269.1 356.1 270 356.5 270.9 357C272 357.6 272.5 358.7 272.5 360C272.5 361.4 271.7 362.2 270.5 362.6C268 363.6 265.4 364.1 262.8 364.1C258.5 364.1 254.1 364.7 249.8 363.7C248.4 363.4 246.9 363.6 245.5 364.2C243.8 364.9 242 365.4 240.4 366.3C238.2 367.5 235.9 367.7 233.5 367.6C231.9 367.5 230.4 367.2 228.8 367C223.4 366.4 218.1 365.8 212.7 365.1C209.1 364.6 205.4 364.1 201.8 363.3C200.3 363 198.8 362.3 197.5 361.4C195.3 359.9 195.1 357.1 196.8 355.2C197.6 354.4 198.6 353.7 199.6 353.1C202.5 351.6 205.6 351.3 208.8 351.4C211.2 351.6 213.6 351.8 216 351.9ZM198.5 357.5C199.6 358.2 200.3 358.8 201.2 359C202.9 359.6 204.7 360.1 206.5 360.5C211.1 361.5 215.7 362.7 220.4 363.5C224.3 364.1 228.2 364.4 232.2 364.6C233.7 364.7 235.4 364.3 236.8 363.6C239.2 362.4 241.7 361.8 244.2 360.9C246 360.2 247.9 360.2 249.6 360.8C254.4 362.6 259.5 362.3 264.4 362.2C266.2 362.2 268 361.6 269.8 361.1C270.7 360.8 270.8 359.3 270 358.8C269.5 358.4 268.9 358.2 268.3 357.9C264.7 356.6 260.9 355.8 257.1 355.7C254.8 355.6 252.7 355 250.9 353.5C249.2 352.1 247.2 351.5 245.1 351.5C241 351.6 236.9 351.4 232.9 351.9C228.3 352.5 223.7 352.5 219.1 352.6C215 352.7 210.9 352.9 206.9 353.2C203.7 353.5 200.9 354.5 198.5 357.5Z" fill="#868686"/>
<path fill-rule="evenodd" clip-rule="evenodd" d="M240.4 274.5C241.8 275.4 242.2 276.7 242.6 278C243.9 282.1 244.9 286.4 244.6 290.7C244.5 292.4 244.2 294.1 243.7 295.7C242.6 299.2 238.8 300 236.3 297.3C235.6 296.5 234.9 295.6 234.6 294.7C233.4 290.9 233 286.9 235 283.2C236.7 280.2 238.6 277.4 240.4 274.5ZM240.5 282.5C237.8 285.7 237.3 289.2 238.7 293C238.8 293.3 239.4 293.5 239.9 293.9C241.6 290 240.8 286.3 240.5 282.5Z" fill="#868686"/>
<path fill-rule="evenodd" clip-rule="evenodd" d="M147.6 129.5C147.8 130.3 147.9 131.6 148.5 132.8C151 138 151.8 143.6 152.9 149.1C153.9 153.7 154.4 158.4 155.1 163.1C154.4 169.9 155.4 176.8 153.2 183.5C152 187.2 149.9 190.4 147.2 193.1C144.3 196 140.3 196.6 136.6 194.7C129.1 190.9 124.4 184.9 122.5 176.7C120.8 169.5 120.4 162.2 121 154.7C121.5 148.8 121.5 142.9 121.8 137C121.8 136.2 121.8 135.5 121.8 134.5C120.5 134.4 119.5 134.3 118.5 134.2C114 133.4 111.2 130.7 110.4 126.2C109.3 120 110.8 114.5 115.3 109.9C118 107.1 121.1 105 124.6 103.3C130.4 100.3 136.6 98.5 143 97.6C145.3 97.2 147.7 97.3 150.1 97.5C154.8 97.9 158.9 101.7 159.4 105.9C160.1 112.3 158.4 117.9 154 122.6C151.9 124.6 150 126.8 147.6 129.5Z" fill="#868686"/>
<path fill-rule="evenodd" clip-rule="evenodd" d="M235.2 220.5C230.7 220.6 226.3 220.2 222 218.8C218.6 217.7 215.5 216.1 212.8 213.7C209.5 210.7 207.8 207 207.7 202.6C207.6 200.5 208.3 198.8 209.6 197.2C211.6 194.8 214 193 216.8 191.8C221.7 189.7 226.8 188.5 232.1 188.5C236.3 188.5 240.5 188.7 244.7 189.4C249.2 190.1 253.2 192.3 256.3 195.6C259.4 198.8 260.7 202.7 258.9 207.2C258.2 209 257.3 210.8 256.3 212.5C255.5 214 254.2 215.2 252.8 216.2C248.2 219.4 243.3 221.1 237.6 220.7C236.8 220.5 236 220.5 235.2 220.5Z" fill="#868686"/>
<path fill-rule="evenodd" clip-rule="evenodd" d="M183.2 197.5C183.5 194.1 184.8 190.6 188.3 188C191.3 185.8 194.5 184.7 198.1 184.4C200.2 184.2 201 185.6 200.1 187.4C199.9 187.9 199.5 188.3 199.2 188.7C196.6 191.9 195.6 195.6 194.9 199.5C194.8 200.1 194.6 200.8 194.5 201.4C194 203.7 192.4 204.9 190.1 205.2C187.7 205.5 185.7 204.7 184.3 202.6C183.4 201.4 183.1 199.8 183.2 197.5ZM195 188.7C192.8 189.6 191.2 191.2 189.8 192.9C188.6 194.3 188.2 196.2 188 198C187.9 199.1 188.3 200.1 189.1 200.8C189.6 201.2 190.3 201.5 190.8 201.4C191.3 201.3 191.8 200.5 191.9 200C192.7 196.2 193.3 192.3 195 188.7Z" fill="#868686"/>
<path fill-rule="evenodd" clip-rule="evenodd" d="M217.9 173.8C217.7 176.6 216.5 179.6 214.3 182.2C212.8 183.9 210.4 183.4 209.5 181.4C207.7 177 209.6 171.9 214 169.8C215.8 168.9 217.4 169.7 217.7 171.7C217.8 172.2 217.8 172.7 217.9 173.8Z" fill="#868686"/>
<path fill-rule="evenodd" clip-rule="evenodd" d="M239.2 173.4C239 176.9 237.8 179.6 235.7 181.9C234.2 183.4 232 182.7 231.3 180.8C230 177.1 231.7 172.2 235 170.1C236.2 169.3 237.8 169.6 238.4 170.9C238.8 171.7 239 172.8 239.2 173.4Z" fill="#868686"/>
<path fill-rule="evenodd" clip-rule="evenodd" d="M207.6 159.7C208 159.6 208.3 159.3 208.6 159.3C212.4 159.5 215.9 158.6 219.1 156.5C219.5 156.2 220 156 220.5 155.7C221.8 155 222.7 155 222.9 155.6C223.3 156.6 222.7 157.4 222.1 158C218.6 161.3 214.5 162.5 209.8 161.6C208.8 161.6 207.7 161.2 207.6 159.7Z" fill="#868686"/>
<path fill-rule="evenodd" clip-rule="evenodd" d="M228.8 232.5C229.2 232 229.6 231.4 230.1 231.2C234 229.8 238 228.4 242.3 228.3C242.8 228.3 243.3 228.5 244.1 228.7C243.8 229.3 243.7 229.9 243.4 230C238.9 231.4 234.4 232.7 229.7 233C229.5 233.1 229.3 232.9 228.8 232.5Z" fill="#868686"/>
<path fill-rule="evenodd" clip-rule="evenodd" d="M243.3 156.9C242.9 157.2 242.5 157.8 242 157.8C239 158.1 235.7 155.1 235.7 152.2C235.7 151.6 236 150.8 236.4 150.5C236.8 150.2 237.9 150.2 238.2 150.5C239.9 152.2 241.5 154.1 243.2 155.9C243.3 156.1 243.3 156.4 243.3 156.9Z" fill="#868686"/>
<path fill-rule="evenodd" clip-rule="evenodd" d="M231.9 357.7C229.7 359.2 227.3 358.7 225 358.7C222.7 358.7 222.7 358.6 220.3 357.2C222.1 356.3 227.3 356.5 231.9 357.7Z" fill="#868686"/>
<path fill-rule="evenodd" clip-rule="evenodd" d="M243.2 354.5C243.2 354.6 243.2 354.7 243.2 354.7C243 354.7 242.8 354.8 242.6 354.8C242.6 354.7 242.6 354.5 242.6 354.4C242.8 354.4 243 354.4 243.2 354.5Z" fill="#868686"/>
</svg>
