<?xml version="1.0" encoding="utf-8"?>
<!-- Generator: Adobe Illustrator 16.2.0, SVG Export Plug-In . SVG Version: 6.00 Build 0)  -->
<!DOCTYPE svg PUBLIC "-//W3C//DTD SVG 1.1//EN" "http://www.w3.org/Graphics/SVG/1.1/DTD/svg11.dtd">
<svg version="1.1" id="Layer_1" xmlns="http://www.w3.org/2000/svg" xmlns:xlink="http://www.w3.org/1999/xlink" x="0px" y="0px"
	 width="248.583px" height="412.479px" viewBox="0 0 248.583 412.479" enable-background="new 0 0 248.583 412.479"
	 xml:space="preserve">
<g>
	<path fill-rule="evenodd" clip-rule="evenodd" fill="#20323D" d="M49.953,143.558c-0.609-4.927-1.19-9.459-1.712-14
		c-0.206-1.79-0.339-3.596-0.391-5.398c-0.197-7.236,0.126-14.463,0.734-21.671c0.292-3.472,0.828-6.946,1.562-10.354
		c2.009-9.304,4.374-18.512,7.798-27.423c0.957-2.494,2.121-4.863,3.596-7.063c2.013-3,4.146-5.916,6.214-8.881
		c0.322-0.463,0.571-0.987,1-1.738c-0.772-0.052-1.223-0.155-1.653-0.099c-7.699,1.013-15.398,0.742-23.055-0.33
		c-3.092-0.434-6.085-1.455-8.815-3.095c-4.826-2.901-6.939-7.875-5.539-13.28c0.264-1.021,0.719-2.086,1.376-2.895
		c1.671-2.051,3.425-4.132,5.845-5.313c3.021-1.472,6.103-2.867,9.27-3.974c4.21-1.468,8.584-0.803,12.901-0.434
		c4.116,0.361,7.931,1.962,11.901,2.931c2.802,0.683,5.618,1.331,8.441,1.91c3.193,0.652,8.334,2.477,13.39,4.893
		c0.519-0.236,1.172-0.5,1.802-0.818c8.982-4.482,18.355-7.877,28.157-10.049c6.652-1.472,13.369-1.472,20.138-1.013
		c10.775,0.729,20.654,4.412,30.338,8.828c0.986,0.45,1.909,1.034,2.905,1.459c9.484,4.085,16.505,11.103,22.736,19.063
		c2.777,3.545,4.703,7.592,6.488,11.661c3.154,7.18,5.628,14.563,6.46,22.467c0.493,4.686,0.875,9.334,0.493,14.231
		c0.584,0.42,1.219,0.953,1.918,1.377c2.061,1.249,4.168,2.43,6.211,3.7c5.57,3.463,9.728,8.219,12.621,14.082
		c1.777,3.594,2.137,7.333,1.081,11.244c-0.991,3.666-3.192,6.201-6.755,7.412c-4.415,1.5-8.944,1.943-13.501,0.624
		c-2.532-0.732-5.025-1.59-7.746-2.457c-0.279,0.585-0.666,1.171-0.846,1.815c-1.683,6.03-3.33,12.068-4.995,18.103
		c-0.16,0.579-0.352,1.149-0.58,1.706c-3.467,8.508-5.858,17.323-7.592,26.336c-1.232,6.381-2.623,12.733-3.858,19.117
		c-0.48,2.479-0.742,4.998-1.081,7.504c-0.181,1.312-0.305,2.631-0.485,3.939c-1.343,9.688-2.06,19.416-1.644,29.188
		c0.155,3.72,0.76,7.419,1.163,11.123c0.052,0.485,0.149,0.962,0.134,1.44c-0.138,3.923,1.029,7.606,2.008,11.332
		c1.335,5.129,2.64,10.262,3.97,15.394c1.776,6.889,4.163,13.566,6.768,20.184c1.713,4.365,3.082,8.871,3.949,13.501
		c0.265,1.413,0.592,2.816,0.947,4.496c0.756-0.362,1.481-0.513,1.915-0.95c2.365-2.399,4.764-4.785,6.952-7.343
		c1.858-2.176,2.42-4.983,2.725-7.731c0.747-6.667,0.352-13.229-2.24-19.542c-0.584-1.408-1.36-2.799-1.355-4.327
		c0.771-0.742,1.438-0.492,2.021-0.029c1.64,1.301,2.764,2.996,3.652,4.873c0.979,2.066,1.926,4.157,3.033,6.157
		c1.679,3.04,2.082,6.415,2.532,9.732c0.695,5.138,1.048,10.319,0.095,15.484c-0.283,1.537-0.464,3.133-1.035,4.571
		c-2.866,7.175-7.084,13.415-13.346,18.076c-1.613,1.199-3.52,2.007-5.704,3.228c-1.579,2.952-3.386,6.339-4.455,10.076
		c-0.975,3.382-1.591,6.76-1.415,10.317c0.277,5.776,0.411,11.562,0.45,17.343c0.024,3.729-0.073,7.471-0.392,11.188
		c-0.352,4.143-2.047,7.655-5.784,9.901c-0.206,0.119-0.477,0.219-0.588,0.407c-1.867,3.128-5.104,3.433-8.188,3.759
		c-4.068,0.43-8.172,0.601-12.262,0.786c-3.334,0.15-6.449-0.894-9.382-2.322c-4.733-2.309-5.446-7.889-1.454-11.356
		c1.248-1.081,2.842-1.78,4.326-2.553c0.936-0.486,1.965-0.795,3.215-1.285c-0.412-0.706-0.619-1.249-0.979-1.65
		c-2.175-2.429-4.566-4.622-7.313-6.412c-2.875-1.875-5.214-4.252-6.84-7.313c-0.387-0.726-0.987-1.343-1.507-2.03
		c-3.283-0.255-6.498-0.613-9.927-0.271c-0.128,0.618-0.377,1.181-0.344,1.73c0.275,4.321,0.734,8.643,0.863,12.974
		c0.086,2.751-0.134,5.549-0.536,8.273c-0.541,3.652-2.777,6.112-6.267,7.257c-1.819,0.601-3.737,1.12-5.63,1.22
		c-4.812,0.237-9.643,0.466-14.416-0.503c-0.819-0.163-1.647-0.386-2.403-0.733c-2.755-1.275-3.785-2.987-3.507-6.039
		c0.246-2.712,1.134-5.166,3.403-6.918c0.464-0.352,0.91-0.733,1.584-1.287c-0.532-0.497-0.893-0.935-1.348-1.24
		c-5.866-3.913-10.768-8.888-15.445-14.097c-2.837-3.168-5.051-6.756-6.75-10.64c-0.622-1.43-1.138-2.932-1.455-4.455
		c-1.597-7.712-2.176-15.467-1.163-23.342c0.536-4.186,0.82-8.389,2.24-12.407c0.236-0.666,0.3-1.422,0.3-2.132
		c-0.017-2.405,0.009-4.823-0.184-7.22c-0.235-2.905-0.244-5.777,0.459-8.618c0.214-0.889,0.03-1.639-0.417-2.408
		c-0.846-1.454-1.631-2.943-2.425-4.382c-1.781-0.415-3.575-0.689-5.27-1.257c-4.412-1.478-7.321-4.549-8.764-8.943
		c-0.596-1.822-1.004-3.722-1.334-5.614c-0.898-5.139-2.842-9.954-4.662-14.793c-0.755-2.017-2.438-3.541-4.188-4.841
		c-2.056-1.528-3.786-3.365-5.24-5.455c-2.811-4.051-2.79-6.368,0.053-10.536c0.131-0.188,0.2-0.42,0.365-0.776
		c-1.828-1.523-3.985-2.566-6.144-3.571c-7.24-3.372-13.437-8.001-17.866-14.745c-2.38-3.626-4.64-7.326-6.944-11
		c-0.253-0.407-0.472-0.845-0.631-1.296c-2.219-6.169-3.749-12.444-3.164-19.089c0.34-3.836,0.502-7.66,1.674-11.407
		c1.009-3.236,2.064-6.425,3.769-9.352c2.3-3.953,4.369-8.042,7.145-11.716c3.015-3.996,6.594-7.343,10.746-10.107
		C47.875,144.99,48.854,144.309,49.953,143.558z M165.721,100.675c1.166,0.884,1.618,1.249,2.086,1.579
		c2.266,1.582,4.505,3.198,6.81,4.719c1.507,0.993,3.082,1.89,4.666,2.757c2.741,1.498,5.433,3.133,8.291,4.374
		c7.188,3.107,14.261,6.438,21.265,9.939c2.143,1.069,4.404,1.946,6.69,2.678c3.052,0.97,6.193,0.885,9.249-0.036
		c2.73-0.826,3.952-2.487,4.064-5.315c0.085-2.187-0.296-4.279-1.258-6.309c-2.235-4.717-5.866-8.21-9.857-11.367
		c-9.738-7.706-20.54-13.4-32.424-17.036c-1.034-0.317-2.095-0.581-3.085-1.008c-0.481-0.206-0.837-0.721-1.232-1.077
		c0.684-1.377,1.756-1.44,2.845-1.477c3.073-0.111,5.975,0.729,8.795,1.786c3.716,1.393,7.377,2.948,11.076,4.39
		c0.713,0.275,1.511,0.344,2.571,0.575c0-1.03,0.051-1.742-0.009-2.446c-0.383-4.438-0.777-8.871-1.206-13.304
		c-0.125-1.318-0.258-2.653-0.58-3.927c-1.651-6.563-4.119-12.824-7.141-18.879c-2.845-5.691-14.132-17.137-18.896-19.639
		c-2.773-1.455-5.468-3.056-8.254-4.484c-8.982-4.609-18.41-7.751-28.565-8.345c-5.047-0.298-10.123-0.638-15.136,0.341
		c-4.721,0.923-9.459,1.833-14.086,3.12c-8.737,2.438-17.11,5.755-24.604,11.021c-9.458,6.652-17.578,14.638-24.059,24.23
		c-1.068,1.584-1.961,3.326-2.631,5.112c-1.142,3.036-2.126,6.145-3.012,9.268c-0.953,3.354-1.846,6.735-2.515,10.156
		c-0.554,2.828-0.701,5.733-1.09,8.596c-1.228,9.094-1.326,18.252-1.623,27.398c-0.235,7.257,0.683,14.428,1.772,21.578
		c0.25,1.639,0.612,3.257,0.975,5.148c-0.443,0.358-1.032,0.955-1.73,1.38c-6.021,3.703-11.368,8.192-15.27,14.106
		c-2.712,4.106-4.931,8.544-7.3,12.871c-0.516,0.937-0.747,2.031-1.078,3.063c-1.665,5.24-1.925,10.665-1.792,16.09
		c0.118,4.849,1.111,9.6,3.219,13.987c1.613,3.36,3.585,6.548,5.478,9.765c2.679,4.551,6.45,8.04,10.749,11.045
		c2.491,1.742,5.343,2.76,7.92,4.278c3.062,1.803,6.262,3.035,9.725,3.699c1.176,0.226,2.309,0.691,3.485,0.94
		c5.176,1.099,10.33,2.347,15.553,3.184c6.3,1.004,12.665,1.567,19.055,1.844c3.733,0.161,7.454,0.358,11.176-0.174
		c2.978-0.425,5.951-0.905,8.943-1.223c1.784-0.195,3.596-0.167,5.399-0.146c0.376,0.005,0.754,0.4,1.102,0.602
		c-0.395,1.292-1.425,1.527-2.295,1.794c-6.121,1.845-12.271,3.54-18.771,3.167c-1.172-0.071-2.361,0.07-3.559,0.115
		c-0.3,0.901-0.626,1.558-0.729,2.253c-0.979,6.449-2.812,12.708-4.768,18.884c-1.159,3.67-0.494,7.048-0.284,10.608
		c1.039,0.159,1.862,0.348,2.7,0.404c3.733,0.239,7.398,0.866,11.06,1.635c2.39,0.497,4.66,1.133,6.794,2.324
		c1.034,0.579,2.099,1.199,3.355,0.95c3.099-2.206,9.592-8.278,10.785-10.124c-1.417-2.183-1.846-4.644-1.181-7.192
		c0.61-2.344,1.64-4.53,3.185-6.434c3.36-4.137,9.115-6.089,14.656-4.193c7.253,2.485,11.746,7.914,15.042,14.317
		c2.219,4.301,2.776,9.199,2.219,14.104c-0.365,3.191-1.231,6.307-3.712,8.409c-3.87,3.287-8.197,5.584-13.575,3.73
		c-0.201-0.074-0.468,0.025-0.776,0.042c-0.228,0.198-0.537,0.396-0.751,0.67c-3.493,4.536-8.051,7.939-12.412,11.531
		c-1.282,1.059-2.858,1.781-4.334,2.58c-3.781,2.046-7.905,2.405-11.952,1.506c-3.854-0.854-7.652-2.158-11.295-3.691
		c-4.881-2.047-9.566-4.549-13.962-7.553c-0.845-0.584-1.635-1.493-2.871-1.223c-0.841,3.175-1.309,7.218-0.846,9.974
		c1.116,6.639,1.837,13.352,4.296,19.72c3.747,9.728,9.308,17.936,18.677,23.071c8.768,4.808,17.927,8.279,28.146,7.957
		c1.3-0.042,2.635,0.443,4.089-0.283c-0.201-0.896-0.373-1.815-0.613-2.713c-1.421-5.277-2.355-10.693-1.523-16.089
		c1.219-7.854,3.167-15.518,7.072-22.634c3.739-6.798,9.331-11.558,15.531-15.823c0.292-0.197,0.652-0.348,0.996-0.391
		c0.399-0.05,0.811,0.048,1.608,0.115c-0.644,0.782-0.986,1.254-1.394,1.67c-1.688,1.717-3.421,3.395-5.091,5.138
		c-3.865,4.034-7.042,8.517-9.119,13.763c-1.969,4.97-3,10.137-3.755,15.398c-0.502,3.48-0.524,6.936-0.163,10.438
		c0.734,7.163,3.841,13.385,7.57,19.336c1.596,2.547,3.872,4.552,6.292,6.401c3.248,2.489,6.372,5.144,9.463,7.827
		c1.415,1.229,1.048,3.352-0.593,4.241c-0.532,0.282-1.11,0.468-1.682,0.651c-1.833,0.597-3.709,1.077-5.494,1.781
		c-1.317,0.523-2.63,1.193-3.75,2.051c-1.12,0.854-0.828,2.313,0.472,2.919c2.094,0.966,4.279,1.594,6.614,1.633
		c4.831,0.08,9.63-0.298,14.428-0.817c2.201-0.231,3.932-0.877,4.836-3.038c0.139-0.326,0.422-0.588,0.662-0.859
		c1.407-1.604,2.124-3.501,2.252-5.596c0.194-3.248,0.589-6.51,0.392-9.737c-0.386-6.163-0.082-12.281,0.236-18.42
		c0.141-2.683,0.592-5.271,1.608-7.737c0.824-2.003,1.832-3.928,2.683-5.919c0.515-1.201,1.125-2.446,1.271-3.721
		c0.635-5.502,1.163-11.008,1.063-16.569c-0.146-8.43-2.043-16.477-5.024-24.274c-1.854-4.845-3.36-9.781-4.64-14.798
		c-0.648-2.554-1.129-5.146-1.66-7.587c-0.383-0.211-0.593-0.421-0.799-0.419c-3.97,0.016-6.142-2.324-7.477-5.721
		c-1.768-4.493-2.095-9.147-1.296-13.864c0.485-2.884,1.477-5.583,3.648-7.703c0.416-0.408,0.75-0.905,1.211-1.472
		c-0.318-2.761-0.646-5.502-0.95-8.254c-0.158-1.434-0.373-2.87-0.391-4.308c-0.056-5.426-0.162-10.85-0.028-16.269
		c0.265-10.508,1.785-20.881,3.883-31.154c2.408-11.798,5.192-23.508,8.699-35.042c0.622-2.051,0.798-4.244,1.163-6.371
		c0.326-1.899,0.484-3.838,0.987-5.684c1.069-3.953,2.317-7.849,3.489-11.772c0.163-0.553,0.295-1.116,0.479-1.815
		c-1.047-0.58-1.974-1.107-2.914-1.61c-1.909-1.021-3.85-1.995-5.741-3.051c-8.446-4.712-15.884-10.902-23.832-16.342
		c-0.768-0.528-1.369-1.343-1.927-2.116C165.716,102.521,165.831,101.971,165.721,100.675z M90.59,322.06
		c-0.906,5.24-1.125,9.909-1.15,14.604c-0.043,9.079,3.163,16.943,8.918,23.802c1.999,2.386,4.369,4.467,6.592,6.664
		c3.78,3.733,7.811,7.133,12.45,9.787c1.343,0.771,2.613,1.732,3.75,2.783c1.598,1.485,1.169,3.064-0.935,3.808
		c-1.018,0.36-2.068,0.622-3.107,0.905c-2.223,0.613-3.395,2.12-3.824,4.328c-0.42,2.169-0.017,2.852,2.129,3.276
		c4.177,0.82,8.399,0.593,12.601,0.395c1.416-0.068,2.811-0.613,4.21-0.956c2.502-0.609,3.948-2.232,4.317-4.743
		c0.189-1.3,0.287-2.644,0.224-3.957c-0.262-5.407-0.58-10.811-0.927-16.211c-0.048-0.668-0.396-1.32-0.589-1.947
		c-1.223-0.295-2.262-0.579-3.313-0.802c-8.228-1.755-15.738-5.16-22.746-9.746c-4-2.614-7.086-6.073-9.57-10.154
		c-3.223-5.291-5.601-10.888-7.034-16.913C92.234,325.501,91.899,323.954,90.59,322.06z M94.659,278.358
		c-0.052-6.546-0.949-12.604-3.716-18.197c-2.503-5.068-5.395-9.944-7.961-14.982c-0.747-1.465-1.678-2.152-3.236-2.456
		c-5.188-1.007-10.355-2.131-15.861-3.279c-0.288,0.163-0.914,0.505-1.533,0.86c-1.695,0.979-2.283,2.43-1.635,4.18
		c0.202,0.559,0.554,1.069,0.893,1.558c1.31,1.91,2.876,3.567,4.807,4.85c1.429,0.962,2.807,2.099,3.309,3.724
		c0.717,2.336,2.077,4.332,3.017,6.538c1.708,3.987,3.274,8.015,3.97,12.343c0.284,1.769,0.833,3.516,1.408,5.223
		c0.631,1.874,1.79,3.444,3.489,4.477c1.742,1.061,3.562,2.043,5.927,1.601C88.848,281.68,91.307,279.662,94.659,278.358z
		 M92.835,253.356c3.63-1.221,5.803-4.096,8.583-6.092c0.417-0.3,0.374-1.24,0.597-2.081c-4.291-0.36-8.326-0.708-12.359-1.026
		c-0.584-0.044-1.181,0.069-1.769,0.129c-0.068,0.005-0.125,0.164-0.184,0.254c-0.035,0.115-0.133,0.271-0.09,0.338
		C89.294,247.627,90.99,250.367,92.835,253.356z M99.135,253.856c-0.171-0.138-0.347-0.272-0.519-0.405
		c-0.936,0.869-1.884,1.719-2.794,2.613c-0.24,0.234-0.438,0.569-0.528,0.896c-0.274,0.981,0.777,2.854,2.082,3.694
		C97.972,258.362,98.552,256.11,99.135,253.856z"/>
	<path fill-rule="evenodd" clip-rule="evenodd" fill="#20323D" d="M74.806,156.503c8.099-0.054,15.759,1.682,23.017,5.285
		c1.85,0.918,3.609,1.957,5.029,3.459c2.858,3,3.442,6.514,2.052,10.355c-1.364,3.755-3.889,6.661-7.197,8.795
		c-2.107,1.363-4.438,2.391-6.687,3.532c-0.532,0.269-1.128,0.496-1.712,0.545c-4.785,0.418-9.579,1.187-14.368,0.109
		c-3.742-0.841-7.583-1.288-11.149-2.875c-2.442-1.085-4.739-2.352-6.734-4.133c-3.365-3.004-5.395-6.714-5.991-11.214
		c-0.605-4.562,1.536-8.643,5.75-10.626c3.523-1.656,7.318-2.364,11.146-2.819C70.226,156.651,72.522,156.634,74.806,156.503z"/>
	<path fill-rule="evenodd" clip-rule="evenodd" fill="#20323D" d="M113.744,138.596c-0.365,2.73-0.593,5.494-1.155,8.189
		c-0.313,1.489-1.106,2.905-1.846,4.266c-0.647,1.206-1.784,1.905-3.11,2.304c-2.738,0.833-4.704,0.014-5.91-2.596
		c-1.704-3.699-2.317-7.618-1.708-11.622c0.434-2.836,1.284-5.609,1.97-8.412c0.116-0.459,0.326-0.905,0.528-1.339
		c2.009-4.24,5.854-4.751,8.837-1.163c1.274,1.527,1.978,3.305,2.051,5.29c0.064,1.68,0.018,3.369,0.018,5.054
		C113.524,138.574,113.637,138.583,113.744,138.596z"/>
	<path fill-rule="evenodd" clip-rule="evenodd" fill="#20323D" d="M73.664,134.219c-2.489-0.232-4.515-0.423-6.544-0.601
		c-1.721-0.148-3.271-0.631-4.541-2.339c0.516-0.223,0.897-0.533,1.275-0.533c7.811,0.052,15.626,0.121,23.441,0.246
		c1.189,0.017,2.378,0.313,3.554,0.549c0.455,0.09,1.004,0.262,1.27,0.59c0.425,0.53,0.807,1.191,0.914,1.844
		c0.112,0.712-0.793,1.566-1.656,1.617c-0.949,0.056-1.91-0.049-2.867-0.106c-0.712-0.043-1.42-0.12-2.36-0.207
		c-0.168,0.858-0.361,1.635-0.468,2.429c-0.331,2.498-0.584,5.004-0.953,7.498c-0.121,0.813-0.425,1.636-0.799,2.378
		c-1.768,3.572-5.712,4.355-8.737,1.764c-1.339-1.15-2.228-2.609-2.219-4.373c0.012-2.876,0.202-5.751,0.343-8.625
		C73.347,135.778,73.497,135.214,73.664,134.219z"/>
	<path fill-rule="evenodd" clip-rule="evenodd" fill="#20323D" d="M120.275,113.043c-1.343,0.582-2.733,0.292-4.111-0.18
		c-1.708-0.579-3.395-1.215-5.115-1.743c-4.249-1.309-8.506-1.459-12.764-0.008c-0.566,0.189-1.132,0.399-1.717,0.524
		c-0.875,0.193-1.712-0.743-1.326-1.575c0.387-0.85,0.859-1.777,1.559-2.341c0.91-0.727,2.029-1.32,3.154-1.642
		c5.914-1.699,11.673-1.075,17.157,1.626c1.138,0.558,2.069,1.607,2.949,2.567C120.734,111.005,120.92,111.971,120.275,113.043z"/>
	<path fill-rule="evenodd" clip-rule="evenodd" fill="#20323D" d="M108.319,202.34c-1.111,0.88-2.215,1.249-3.43,1.382
		c-8.128,0.871-16.076,2.611-23.87,5.081c-0.317,0.099-0.691,0.059-1.446,0.111c0.485-0.667,0.704-1.205,1.107-1.479
		c1.172-0.82,2.365-1.648,3.648-2.271c5.781-2.811,11.965-4.193,18.32-4.85c1.186-0.122,2.408-0.082,3.589,0.078
		C107.174,200.521,108.084,200.924,108.319,202.34z"/>
</g>
</svg>
