<?xml version="1.0" encoding="utf-8"?>
<!-- Generator: Adobe Illustrator 16.2.0, SVG Export Plug-In . SVG Version: 6.00 Build 0)  -->
<!DOCTYPE svg PUBLIC "-//W3C//DTD SVG 1.1//EN" "http://www.w3.org/Graphics/SVG/1.1/DTD/svg11.dtd">
<svg version="1.1" id="Layer_1" xmlns="http://www.w3.org/2000/svg" xmlns:xlink="http://www.w3.org/1999/xlink" x="0px" y="0px"
	 width="194px" height="194px" viewBox="0 0 194 194" enable-background="new 0 0 194 194" xml:space="preserve">
<g>
	<path fill="#20323D" d="M165.003,149.475c0,2.121-1.887,4.01-4.009,4.01H65.013c-5.424,0-10.141,2.121-13.679,5.658
		c-3.302,3.066-5.423,7.547-5.66,12.733c3.066,1.651,6.368,2.831,10.141,2.831h101.169v-12.971c0-2.122,1.65-4.01,4.01-4.01
		c2.122,0,4.009,1.888,4.009,4.01v16.979c0,2.121-1.887,4.009-4.009,4.009H55.815c-6.131,0-12.027-2.123-16.508-5.66l-0.236-0.236
		c-0.707-0.707-1.415-1.415-2.357-2.121c-4.717-4.716-7.783-11.557-7.783-18.866V52.312c0-7.31,3.065-14.149,7.783-19.102
		c4.48-4.244,10.14-7.074,16.507-7.783h0.237c0.706,0,1.65,0,2.357,0h105.179c2.122,0,4.009,1.652,4.009,4.009V149.475z
		 M156.984,145.465V33.447H90.246v91.737c0,2.123-1.885,4.008-4.009,4.008c-1.179,0-2.358-0.707-3.064-1.648L69.966,112.45
		l-13.207,15.327c-1.415,1.65-4.009,1.888-5.659,0.236c-0.943-0.707-1.415-1.887-1.415-2.83V34.389
		c-2.594,0.944-5.188,2.594-7.311,4.482c-3.302,3.537-5.423,8.252-5.423,13.44V155.84c0,3.064,0.707,5.896,2.121,8.489
		c1.18-4.246,3.537-7.782,6.604-10.847c4.953-4.955,11.792-8.02,19.338-8.02h91.97V145.465z M82.228,33.447H57.702v81.125
		l9.197-10.614l0.708-0.472c1.65-1.414,4.01-1.414,5.425,0.236l9.196,10.611V33.447z"/>
</g>
</svg>
