<?xml version="1.0" encoding="utf-8"?>
<!-- Generator: Adobe Illustrator 16.2.0, SVG Export Plug-In . SVG Version: 6.00 Build 0)  -->
<!DOCTYPE svg PUBLIC "-//W3C//DTD SVG 1.1//EN" "http://www.w3.org/Graphics/SVG/1.1/DTD/svg11.dtd">
<svg version="1.1" id="Layer_1" xmlns="http://www.w3.org/2000/svg" xmlns:xlink="http://www.w3.org/1999/xlink" x="0px" y="0px"
	 width="194px" height="194px" viewBox="0 0 194 194" enable-background="new 0 0 194 194" xml:space="preserve">
<g>
	<path fill="#0097E3" d="M163.617,149.202c0,2.14-1.664,4.042-4.042,4.042H65.424c-4.992,0-9.746,2.14-13.075,5.467
		c-3.329,3.33-5.468,7.848-5.468,13.077c2.852,1.903,6.181,2.854,9.747,2.854h98.906v-13.078c0-2.139,1.899-4.041,4.041-4.041
		c2.378,0,4.042,1.902,4.042,4.041v17.119c0,2.139-1.664,4.041-4.042,4.041H56.628c-7.369,0-14.027-3.091-18.782-8.082
		C33.09,169.648,30,162.991,30,155.621V51.247c0-7.37,3.089-14.265,7.846-19.258c4.755-4.754,11.413-7.846,18.782-7.846h102.947
		c2.378,0,4.042,1.665,4.042,4.042V149.202z M155.534,145.16V32.227H56.628c-4.992,0-9.747,2.139-13.077,5.469
		c-3.327,3.566-5.468,8.32-5.468,13.551v104.375c0,2.854,0.714,5.705,1.902,8.321c1.427-4.043,3.566-7.848,6.658-10.698
		c4.754-4.995,11.412-8.084,18.781-8.084L155.534,145.16L155.534,145.16z M143.419,71.183c0,2.112-1.712,3.824-3.823,3.824H57.768
		c-2.111,0-3.823-1.711-3.823-3.824l0,0c0-2.111,1.712-3.823,3.823-3.823h81.828C141.707,67.359,143.419,69.071,143.419,71.183
		L143.419,71.183z M143.68,88.646c0,2.112-1.713,3.824-3.824,3.824H58.028c-2.112,0-3.824-1.711-3.824-3.824l0,0
		c0-2.111,1.712-3.823,3.824-3.823h81.828C141.967,84.823,143.68,86.535,143.68,88.646L143.68,88.646z M132.163,107.001
		c0,2.112-1.246,3.824-2.783,3.824H69.813c-1.537,0-2.783-1.712-2.783-3.824l0,0c0-2.11,1.246-3.823,2.783-3.823h59.566
		C130.917,103.178,132.163,104.891,132.163,107.001L132.163,107.001z"/>
</g>
</svg>
