<?xml version="1.0" encoding="utf-8"?>
<!-- Generator: Adobe Illustrator 25.0.1, SVG Export Plug-In . SVG Version: 6.00 Build 0)  -->
<svg version="1.1" id="Layer_1" xmlns="http://www.w3.org/2000/svg" xmlns:xlink="http://www.w3.org/1999/xlink" x="0px" y="0px"
	 viewBox="0 0 194 194" style="enable-background:new 0 0 194 194;" xml:space="preserve">
<style type="text/css">
	.st0{fill:#2C3E50;}
	.st1{fill:#3498DB;}
</style>
<path class="st0" d="M181.1,133.2l-31.9-94.3c-0.9-2.2-3.1-3.6-5.4-2.7l-22.9,7.6c-2.2,0.9-3.1,3.1-2.7,5.4l31.9,94.8
	c0.9,2.2,3.2,3.1,5.4,2.7l22.9-8.1C180.6,138.1,182,135.4,181.1,133.2z M147.5,115.6L130,65c-0.9-2.6,0.7-5.6,3.5-6.5l8.8-3
	c2.8-1,5.9,0.4,6.8,3l17.5,50.6c0.9,2.6-0.6,5.6-3.5,6.5l-8.8,3C151.4,119.6,148.4,118.2,147.5,115.6z M169.6,134.2l-9.8,3.4
	c-2.6,0.9-5.5-0.5-6.4-3.1l-1.1-3.2c-0.9-2.6,0.5-5.5,3.1-6.4l9.8-3.4c2.6-0.9,5.5,0.5,6.4,3.1l1.1,3.2
	C173.6,130.4,172.2,133.3,169.6,134.2z"/>
<path class="st0" d="M112.5,38.4H88.7c-2.2,0-4.5,1.8-4.5,4.5v99.3c0,2.7,2.2,4.5,4.5,4.5h23.8c2.7,0,4.5-1.8,4.5-4.5V42.9
	C117,40.2,115.2,38.4,112.5,38.4z M90.9,50.8c0-2.7,2.3-4.8,5.2-4.8h8.9c2.9,0,5.2,2.2,5.2,4.8v16.8c0,2.7-2.3,4.8-5.2,4.8h-8.9
	c-2.9,0-5.2-2.2-5.2-4.8V50.8z M110.2,117.9c0,2.7-2.3,4.8-5.2,4.8h-8.9c-2.9,0-5.2-2.2-5.2-4.8V101c0-2.7,2.3-4.8,5.2-4.8h8.9
	c2.9,0,5.2,2.2,5.2,4.8V117.9z M110.3,85.8c0,2.7-2.2,4.8-4.8,4.8h-9.9c-2.7,0-4.8-2.2-4.8-4.8v-3.2c0-2.7,2.2-4.8,4.8-4.8h9.9
	c2.7,0,4.8,2.2,4.8,4.8V85.8z"/>
<rect x="8.1" y="151.7" class="st0" width="177.9" height="7.8"/>
<path class="st1" d="M75,38.4H50.8c-2.2,0-4,1.8-4,4.5v99.3c0,2.7,1.8,4.5,4,4.5H75c2.2,0,4-1.8,4-4.5V42.9
	C79.1,40.2,77.3,38.4,75,38.4z M73,131.7c0,2.8-2.2,5-5,5H57.6c-2.8,0-5-2.3-5-5v-3.4c0-2.8,2.2-5,5-5h10.4c2.8,0,5,2.3,5,5V131.7z
	 M73.3,112c0,2.8-2.4,5.1-5.4,5.1h-9.3c-3,0-5.4-2.3-5.4-5.1V58.4c0-2.8,2.4-5,5.4-5h9.3c3,0,5.4,2.3,5.4,5V112z"/>
<path class="st0" d="M37.4,38.4H13.1c-2.2,0-4,1.8-4,4.5v99.3c0,2.7,1.8,4.5,4,4.5h24.3c2.2,0,4-1.8,4-4.5V42.9
	C41.4,40.2,39.6,38.4,37.4,38.4z M35.2,131.9c0,2.8-2.5,5.2-5.5,5.2h-9.5c-3.1,0-5.5-2.3-5.5-5.2V77.3c0-2.9,2.5-5.2,5.5-5.2h9.5
	c3.1,0,5.5,2.3,5.5,5.2V131.9z M35.5,61.2c0,2.9-2.3,5.2-5.1,5.2H20c-2.8,0-5.1-2.3-5.1-5.2v-3.4c0-2.8,2.3-5.1,5.1-5.1h10.4
	c2.8,0,5.1,2.3,5.1,5.1V61.2z"/>
</svg>
