<?xml version="1.0" encoding="utf-8"?>
<!-- Generator: Adobe Illustrator 16.2.0, SVG Export Plug-In . SVG Version: 6.00 Build 0)  -->
<!DOCTYPE svg PUBLIC "-//W3C//DTD SVG 1.1//EN" "http://www.w3.org/Graphics/SVG/1.1/DTD/svg11.dtd">
<svg version="1.1" id="Layer_1" xmlns="http://www.w3.org/2000/svg" xmlns:xlink="http://www.w3.org/1999/xlink" x="0px" y="0px"
	 width="194px" height="194px" viewBox="0 0 194 194" enable-background="new 0 0 194 194" xml:space="preserve">
<g display="none">
	<path display="inline" fill="#20323D" d="M150.061,143.957c0.899,2.246,3.146,3.146,5.393,2.695l22.914-8.086
		c2.246-0.45,3.595-3.146,2.695-5.394l-31.899-94.349c-0.897-2.247-3.146-3.594-5.392-2.695l-22.912,7.637
		c-2.248,0.899-3.146,3.146-2.696,5.391L150.061,143.957z"/>
	<path display="inline" fill="#20323D" d="M88.652,146.652h23.813c2.695,0,4.493-1.797,4.493-4.492V42.868
		c0-2.695-1.798-4.492-4.493-4.492H88.652c-2.246,0-4.492,1.797-4.492,4.492v99.292C84.16,144.855,86.406,146.652,88.652,146.652z"
		/>
	<rect x="8.105" y="151.678" display="inline" fill="#20323D" width="177.938" height="7.822"/>
	<path display="inline" fill="#20323D" d="M50.77,146.652h24.261c2.246,0,4.043-1.797,4.043-4.492V42.868
		c0-2.695-1.797-4.492-4.043-4.492H50.77c-2.246,0-4.044,1.797-4.044,4.492v99.292C46.726,144.855,48.524,146.652,50.77,146.652z"/>
	<path display="inline" fill="#0097E3" d="M13.124,146.652h24.261c2.247,0,4.043-1.797,4.043-4.492V42.868
		c0-2.695-1.797-4.492-4.043-4.492H13.124c-2.246,0-4.044,1.797-4.044,4.492v99.292C9.08,144.855,10.878,146.652,13.124,146.652z"/>
	<path display="inline" fill="#FFFFFF" d="M35.525,61.232c0,2.845-2.274,5.151-5.08,5.151H20.002c-2.806,0-5.081-2.306-5.081-5.151
		v-3.434c0-2.845,2.275-5.151,5.081-5.151h10.443c2.806,0,5.08,2.306,5.08,5.151V61.232z"/>
	<path display="inline" fill="#FFFFFF" d="M72.984,131.727c0,2.784-2.258,5.045-5.044,5.045H57.571c-2.786,0-5.044-2.26-5.044-5.045
		v-3.363c0-2.785,2.258-5.045,5.044-5.045H67.94c2.786,0,5.044,2.26,5.044,5.045V131.727z"/>
	<path display="inline" fill="#FFFFFF" d="M110.316,85.806c0,2.658-2.153,4.813-4.813,4.813h-9.892
		c-2.659,0-4.813-2.154-4.813-4.813v-3.208c0-2.658,2.155-4.813,4.813-4.813h9.892c2.658,0,4.813,2.155,4.813,4.813V85.806z"/>
	<path display="inline" fill="#FFFFFF" d="M35.239,131.914c0,2.846-2.478,5.15-5.535,5.15h-9.533c-3.057,0-5.535-2.306-5.535-5.15
		V77.257c0-2.845,2.478-5.151,5.535-5.151h9.533c3.057,0,5.535,2.306,5.535,5.151V131.914z"/>
	<path display="inline" fill="#FFFFFF" d="M73.264,111.969c0,2.786-2.427,5.045-5.42,5.045h-9.336c-2.994,0-5.42-2.259-5.42-5.045
		V58.444c0-2.786,2.427-5.044,5.42-5.044h9.336c2.994,0,5.42,2.259,5.42,5.044V111.969z"/>
	<path display="inline" fill="#FFFFFF" d="M110.184,67.625c0,2.658-2.314,4.813-5.172,4.813h-8.906
		c-2.856,0-5.172-2.154-5.172-4.813V50.781c0-2.658,2.315-4.813,5.172-4.813h8.906c2.856,0,5.172,2.155,5.172,4.813V67.625z"/>
	<path display="inline" fill="#FFFFFF" d="M110.184,117.889c0,2.658-2.314,4.813-5.172,4.813h-8.906
		c-2.856,0-5.172-2.154-5.172-4.813v-16.844c0-2.656,2.315-4.813,5.172-4.813h8.906c2.856,0,5.172,2.155,5.172,4.813V117.889z"/>
	<path display="inline" fill="#FFFFFF" d="M172.719,127.758c0.909,2.635-0.486,5.506-3.121,6.415l-9.8,3.386
		c-2.634,0.909-5.505-0.488-6.415-3.121l-1.099-3.179c-0.909-2.633,0.487-5.505,3.122-6.415l9.8-3.386
		c2.634-0.909,5.505,0.489,6.415,3.121L172.719,127.758z"/>
	<path display="inline" fill="#FFFFFF" d="M166.533,108.993c0.91,2.633-0.646,5.56-3.477,6.536l-8.826,3.049
		c-2.828,0.977-5.858-0.364-6.77-2.998l-17.477-50.591c-0.908-2.633,0.647-5.56,3.478-6.538l8.824-3.048
		c2.829-0.978,5.86,0.365,6.771,2.998L166.533,108.993z"/>
</g>
<g display="none">
	<path display="inline" fill="#20323D" d="M150.061,143.957c0.899,2.246,3.146,3.146,5.393,2.695l22.914-8.086
		c2.246-0.45,3.594-3.146,2.695-5.394l-31.899-94.349c-0.897-2.247-3.146-3.594-5.392-2.695l-22.914,7.637
		c-2.246,0.899-3.146,3.146-2.694,5.391L150.061,143.957z"/>
	<path display="inline" fill="#20323D" d="M88.652,146.652h23.813c2.695,0,4.493-1.797,4.493-4.492V42.868
		c0-2.695-1.798-4.492-4.493-4.492H88.652c-2.246,0-4.492,1.797-4.492,4.492v99.292C84.16,144.855,86.406,146.652,88.652,146.652z"
		/>
	<rect x="8.105" y="151.678" display="inline" fill="#20323D" width="177.938" height="7.822"/>
	<path display="inline" fill="#0097E3" d="M50.77,146.652h24.261c2.247,0,4.044-1.797,4.044-4.492V42.868
		c0-2.695-1.797-4.492-4.044-4.492H50.77c-2.246,0-4.044,1.797-4.044,4.492v99.292C46.726,144.855,48.524,146.652,50.77,146.652z"/>
	<path display="inline" fill="#20323D" d="M13.124,146.652h24.261c2.247,0,4.044-1.797,4.044-4.492V42.868
		c0-2.695-1.797-4.492-4.044-4.492H13.124c-2.246,0-4.044,1.797-4.044,4.492v99.292C9.08,144.855,10.878,146.652,13.124,146.652z"/>
	<path display="inline" fill="#FFFFFF" d="M35.525,61.232c0,2.845-2.275,5.151-5.08,5.151H20.002c-2.806,0-5.08-2.306-5.08-5.151
		v-3.434c0-2.845,2.274-5.151,5.08-5.151h10.443c2.805,0,5.08,2.306,5.08,5.151V61.232z"/>
	<path display="inline" fill="#FFFFFF" d="M72.984,131.727c0,2.784-2.258,5.045-5.044,5.045H57.571c-2.786,0-5.044-2.26-5.044-5.045
		v-3.363c0-2.785,2.258-5.045,5.044-5.045H67.94c2.786,0,5.044,2.26,5.044,5.045V131.727z"/>
	<path display="inline" fill="#FFFFFF" d="M110.316,85.806c0,2.658-2.153,4.813-4.813,4.813h-9.892
		c-2.659,0-4.813-2.154-4.813-4.813v-3.208c0-2.658,2.154-4.813,4.813-4.813h9.892c2.658,0,4.813,2.155,4.813,4.813V85.806z"/>
	<path display="inline" fill="#FFFFFF" d="M35.239,131.914c0,2.846-2.478,5.15-5.535,5.15h-9.533c-3.058,0-5.536-2.306-5.536-5.15
		V77.257c0-2.845,2.479-5.151,5.536-5.151h9.533c3.057,0,5.535,2.306,5.535,5.151V131.914z"/>
	<path display="inline" fill="#FFFFFF" d="M73.264,111.969c0,2.786-2.426,5.045-5.42,5.045h-9.335c-2.994,0-5.42-2.259-5.42-5.045
		V58.444c0-2.786,2.426-5.044,5.42-5.044h9.335c2.994,0,5.42,2.259,5.42,5.044V111.969z"/>
	<path display="inline" fill="#FFFFFF" d="M110.184,67.625c0,2.658-2.314,4.813-5.172,4.813h-8.906
		c-2.856,0-5.172-2.154-5.172-4.813V50.781c0-2.658,2.315-4.813,5.172-4.813h8.906c2.856,0,5.172,2.155,5.172,4.813V67.625z"/>
	<path display="inline" fill="#FFFFFF" d="M110.184,117.889c0,2.658-2.314,4.813-5.172,4.813h-8.906
		c-2.856,0-5.172-2.154-5.172-4.813v-16.844c0-2.656,2.315-4.813,5.172-4.813h8.906c2.856,0,5.172,2.155,5.172,4.813V117.889z"/>
	<path display="inline" fill="#FFFFFF" d="M172.719,127.758c0.909,2.635-0.486,5.506-3.121,6.415l-9.8,3.386
		c-2.634,0.909-5.505-0.488-6.415-3.121l-1.099-3.179c-0.909-2.633,0.487-5.505,3.122-6.415l9.8-3.386
		c2.634-0.909,5.505,0.489,6.414,3.121L172.719,127.758z"/>
	<path display="inline" fill="#FFFFFF" d="M166.533,108.993c0.91,2.633-0.646,5.56-3.479,6.536l-8.824,3.049
		c-2.828,0.977-5.859-0.364-6.77-2.998l-17.477-50.591c-0.908-2.633,0.646-5.56,3.478-6.538l8.824-3.048
		c2.829-0.978,5.86,0.365,6.771,2.998L166.533,108.993z"/>
</g>
<g>
	<path fill="#20323D" d="M150.061,143.957c0.899,2.246,3.146,3.146,5.393,2.695l22.914-8.086c2.246-0.45,3.595-3.146,2.695-5.394
		l-31.899-94.349c-0.897-2.247-3.146-3.594-5.392-2.695l-22.912,7.638c-2.248,0.898-3.146,3.145-2.696,5.391L150.061,143.957z"/>
	<path fill="#0097E3" d="M88.652,146.652h23.813c2.695,0,4.493-1.797,4.493-4.492V42.869c0-2.695-1.798-4.492-4.493-4.492H88.652
		c-2.246,0-4.493,1.797-4.493,4.492v99.292C84.16,144.855,86.407,146.652,88.652,146.652z"/>
	<rect x="8.105" y="151.678" fill="#20323D" width="177.938" height="7.822"/>
	<path fill="#20323D" d="M50.77,146.652h24.261c2.247,0,4.043-1.797,4.043-4.492V42.869c0-2.695-1.797-4.492-4.043-4.492H50.77
		c-2.246,0-4.044,1.797-4.044,4.492v99.292C46.726,144.855,48.524,146.652,50.77,146.652z"/>
	<path fill="#20323D" d="M13.124,146.652h24.261c2.247,0,4.043-1.797,4.043-4.492V42.869c0-2.695-1.797-4.492-4.043-4.492H13.124
		c-2.246,0-4.044,1.797-4.044,4.492v99.292C9.08,144.855,10.878,146.652,13.124,146.652z"/>
	<path fill="#121212" d="M35.525,61.232c0,2.845-2.274,5.151-5.08,5.151H20.002c-2.806,0-5.081-2.306-5.081-5.151v-3.435
		c0-2.844,2.275-5.15,5.081-5.15h10.443c2.806,0,5.08,2.306,5.08,5.15V61.232z"/>
	<path fill="#121212" d="M72.984,131.727c0,2.784-2.258,5.045-5.044,5.045H57.571c-2.786,0-5.044-2.26-5.044-5.045v-3.363
		c0-2.785,2.258-5.045,5.044-5.045H67.94c2.786,0,5.044,2.26,5.044,5.045V131.727z"/>
	<path fill="#121212" d="M110.316,85.806c0,2.658-2.153,4.813-4.813,4.813h-9.892c-2.659,0-4.813-2.155-4.813-4.813v-3.208
		c0-2.658,2.154-4.813,4.813-4.813h9.892c2.658,0,4.813,2.155,4.813,4.813V85.806z"/>
	<path fill="#121212" d="M35.239,131.914c0,2.846-2.478,5.15-5.535,5.15h-9.533c-3.057,0-5.535-2.306-5.535-5.15V77.257
		c0-2.845,2.478-5.151,5.535-5.151h9.533c3.057,0,5.535,2.307,5.535,5.151V131.914z"/>
	<path fill="#121212" d="M73.264,111.969c0,2.786-2.426,5.045-5.421,5.045h-9.335c-2.994,0-5.42-2.259-5.42-5.045V58.444
		c0-2.785,2.427-5.044,5.42-5.044h9.335c2.995,0,5.421,2.259,5.421,5.044V111.969z"/>
	<path fill="#121212" d="M110.184,67.625c0,2.659-2.314,4.813-5.172,4.813h-8.906c-2.856,0-5.172-2.154-5.172-4.813V50.781
		c0-2.658,2.315-4.813,5.172-4.813h8.906c2.856,0,5.172,2.155,5.172,4.813V67.625z"/>
	<path fill="#121212" d="M110.184,117.889c0,2.658-2.314,4.813-5.172,4.813h-8.906c-2.856,0-5.172-2.154-5.172-4.813v-16.844
		c0-2.656,2.315-4.813,5.172-4.813h8.906c2.856,0,5.172,2.155,5.172,4.813V117.889z"/>
	<path fill="#121212" d="M172.719,127.758c0.909,2.633-0.486,5.506-3.121,6.415l-9.8,3.386c-2.634,0.909-5.505-0.488-6.415-3.121
		l-1.099-3.179c-0.909-2.633,0.487-5.505,3.122-6.415l9.8-3.386c2.634-0.909,5.505,0.489,6.415,3.121L172.719,127.758z"/>
	<path fill="#121212" d="M166.533,108.993c0.91,2.633-0.646,5.56-3.477,6.536l-8.826,3.049c-2.828,0.977-5.858-0.364-6.77-2.998
		l-17.477-50.591c-0.908-2.633,0.647-5.56,3.478-6.538l8.824-3.048c2.829-0.978,5.86,0.365,6.771,2.998L166.533,108.993z"/>
</g>
</svg>
