<?xml version="1.0" encoding="utf-8"?>
<!-- Generator: Adobe Illustrator 16.2.0, SVG Export Plug-In . SVG Version: 6.00 Build 0)  -->
<!DOCTYPE svg PUBLIC "-//W3C//DTD SVG 1.1//EN" "http://www.w3.org/Graphics/SVG/1.1/DTD/svg11.dtd">
<svg version="1.1" id="Layer_1" xmlns="http://www.w3.org/2000/svg" xmlns:xlink="http://www.w3.org/1999/xlink" x="0px" y="0px"
	 width="194px" height="194px" viewBox="0 0 194 194" enable-background="new 0 0 194 194" xml:space="preserve">
<g>
	<path fill="#0097E3" d="M163.641,149.202c0,2.14-1.663,4.042-4.042,4.042h-94.15c-4.993,0-9.747,2.14-13.075,5.467
		c-3.329,3.33-5.468,7.847-5.468,13.077c2.853,1.903,6.182,2.854,9.747,2.854h98.907v-13.077c0-2.139,1.9-4.042,4.04-4.042
		c2.379,0,4.042,1.903,4.042,4.042v17.119c0,2.139-1.663,4.041-4.042,4.041H56.652c-7.369,0-14.027-3.091-18.781-8.083
		c-4.757-4.992-7.846-11.65-7.846-19.021V51.247c0-7.37,3.089-14.265,7.846-19.258c4.754-4.754,11.412-7.846,18.781-7.846h102.947
		c2.379,0,4.042,1.665,4.042,4.042V149.202z M155.559,145.16V32.227H56.652c-4.992,0-9.747,2.139-13.077,5.469
		c-3.327,3.566-5.468,8.32-5.468,13.551v104.375c0,2.854,0.713,5.705,1.902,8.321c1.427-4.043,3.566-7.847,6.658-10.698
		c4.754-4.995,11.412-8.084,18.781-8.084H155.559z M93.742,44.115h46.363c2.377,0,4.041,1.901,4.041,4.043v33.285
		c0,2.139-1.664,4.042-4.041,4.042H93.742c-2.141,0-4.042-1.903-4.042-4.042V48.158C89.7,46.016,91.601,44.115,93.742,44.115z
		 M136.063,52.198h-38.28v25.201h38.28V52.198z"/>
</g>
</svg>
