<?xml version="1.0" encoding="utf-8"?>
<!-- Generator: Adobe Illustrator 16.2.0, SVG Export Plug-In . SVG Version: 6.00 Build 0)  -->
<!DOCTYPE svg PUBLIC "-//W3C//DTD SVG 1.1//EN" "http://www.w3.org/Graphics/SVG/1.1/DTD/svg11.dtd">
<svg version="1.1" id="Layer_1" xmlns="http://www.w3.org/2000/svg" xmlns:xlink="http://www.w3.org/1999/xlink" x="0px" y="0px"
	 width="296.58px" height="386.98px" viewBox="0 0 296.58 386.98" enable-background="new 0 0 296.58 386.98" xml:space="preserve">
<g>
	<path fill-rule="evenodd" clip-rule="evenodd" fill="#20323D" d="M27.866,334.593c-0.68-2.301-1.21-4.313-1.871-6.284
		c-3.035-9.01-3.522-18.31-3.128-27.699c0.113-2.626,0.38-5.248,0.68-7.865c0.3-2.611,0.596-5.238,1.121-7.809
		c0.554-2.696,1.351-5.346,2.092-8.001c0.493-1.772,1.135-3.508,1.609-5.285c0.755-2.813,1.914-5.436,3.25-8.024
		c2.898-5.628,6.336-10.928,9.797-16.203c0.867-1.318,1.852-2.561,2.879-3.757c2.317-2.697,4.671-5.337,6.599-8.357
		c1.046-1.64,2.519-3.039,3.949-4.39c4.887-4.62,9.516-9.465,13.591-14.83c3.269-4.305,6.285-8.732,8.311-13.82
		c2.045-5.126,4.465-10.107,6.702-15.16c2.631-5.944,3.977-12.257,5.018-18.617c1.14-7.012,2.031-14.065,2.931-21.119
		c0.666-5.215,1.158-10.458,1.75-15.692c1.027-9.056,2.931-17.901,6.12-26.46c2.11-5.668,4.028-11.406,6.045-17.111
		c0.263-0.741,0.54-1.489,0.9-2.19c4.61-9.023,9.117-18.11,15.294-26.221c2.481-3.252,5.074-6.395,8.212-9.049
		c3.119-2.631,6.163-5.354,9.352-7.897c5.812-4.639,12.434-7.893,19.201-10.848c3.489-1.534,7.025-2.974,10.604-4.301
		c11.34-4.193,23.009-6.547,35.16-5.994c1.571,0.075,3.156,0.225,4.699,0.521c7.743,1.5,15.477,3.011,23.041,5.346
		c5.507,1.698,10.539,4.235,15.064,7.631c7.325,5.492,13.694,11.959,18.061,20.138c2.734,5.135,4.694,10.487,5.333,16.391
		c0.571,5.361,1.463,10.684,1.58,16.091c0.188,8.826,0.099,17.629-1.515,26.362c-0.765,4.136-1.187,8.334-2.364,12.391
		c-0.347,1.182-0.258,2.303,0.399,3.414c0.524,0.9,1.018,1.872,1.252,2.877c1.637,7.042,3.231,14.091,4.783,21.154
		c1.365,6.224,1.651,12.545,1.089,18.858c-0.371,4.211-1.511,8.294-4.555,11.544c-0.802,0.86-1.552,1.771-2.326,2.659
		c0.188,0.424,0.31,0.804,0.512,1.137c4.971,8.193,6.472,17.14,5.745,26.563c-0.065,0.788-0.047,1.614-0.281,2.348
		c-1.975,6.137-3.729,12.36-7.194,17.89c-4.062,6.475-9.525,11.556-15.721,15.913c-6.979,4.898-14.633,8.334-22.925,10.238
		c-5.777,1.327-11.687,1.848-17.615,2.021c-7.916,0.235-15.8-0.042-23.604-1.508c-4.526-0.855-9.005-1.859-13.259-3.726
		c-1.791-0.786-3.677-1.369-5.684-2.105c-0.423,0.862-0.854,1.51-1.065,2.228c-0.966,3.28-1.903,6.57-2.771,9.877
		c-0.258,1.003-0.38,2.077-0.356,3.114c0.188,7.396-0.882,14.697-1.515,22.032c-0.089,1.051-0.174,2.106-0.136,3.152
		c0.3,8.311-0.08,16.598-0.999,24.845c-0.825,7.352-2.514,14.518-5.928,21.168c-0.601,1.167-1.225,2.345-1.993,3.399
		c-2.448,3.377-5.352,6.163-9.765,6.871c-1.389,2.992-3.968,4.577-6.955,5.389c-5.989,1.627-12.044,2.626-18.328,1.811
		c-2.463-0.319-4.428-1.496-6.369-2.528c-0.432,0.127-0.778,0.117-0.905,0.277c-2.077,2.71-4.9,4.413-8.006,5.562
		c-2.447,0.905-5.018,1.764-7.588,1.998c-5.107,0.46-10.243,0.872-15.378,0.211c-5.619-0.722-11.097-2.115-16.57-3.531
		c-4.446-1.149-8.896-2.303-13.338-3.489c-0.877-0.232-1.829-0.437-2.556-0.938c-3.672-2.527-7.762-4.492-10.81-7.884
		c-0.244-0.271-0.657-0.389-1.158-0.675c-3.288,2.068-6.772,3.897-9.854,6.364c-1.773,1.421-3.147,3.121-4.174,5.178
		c-1.547,3.095-1.055,5.941,1.022,8.46c1.332,1.604,2.997,2.964,4.625,4.289c0.68,0.556,1.632,0.842,2.509,1.074
		c4.343,1.133,8.742,1.911,13.258,1.752c2.106-0.08,4.207-0.192,6.313-0.263c0.478-0.019,0.957,0.079,1.393,0.112
		c0.141,0.896-0.38,1.093-0.872,1.247c-4.798,1.529-9.722,2.393-14.75,2.491c-4.005,0.079-7.799-0.84-11.368-2.776
		c-3.001-1.628-6.177-2.945-8.892-5.084c-0.929-0.732-1.867-1.457-2.781-2.209c-2.608-2.139-3.775-4.983-4.015-8.28
		c-0.417-5.767,1.21-10.933,4.61-15.563c3.021-4.113,6.791-7.321,11.5-9.375C25.54,335.647,26.492,335.212,27.866,334.593z
		 M53.848,286.146c-0.173-0.196-0.342-0.389-0.511-0.581c1.074-0.952,2.101-1.958,3.236-2.838c0.928-0.722,1.941-1.364,2.987-1.903
		c4.127-2.132,8.484-3.579,13.108-4.108c2.213-0.256,4.535-0.774,6.664-0.38c10.229,1.89,18.103,7.949,20.828,19.021
		c2.172,8.804,1.206,17.536-0.67,26.203c-0.507,2.335-0.592,4.348,0.685,6.383c0.558,0.887,0.966,1.871,1.533,2.753
		c1.984,3.1,3.973,6.2,6.041,9.248c0.787,1.163,1.097,2.317,0.717,3.297c1.323,1.975,2.481,3.715,3.64,5.445
		c0.291,0.437,0.502,1.103,0.9,1.248c2.589,0.959,4.488,3.128,7.345,3.714c5.131,1.046,10.191,0.962,15.251-0.178
		c1.248-0.282,2.477-0.868,3.56-1.558c0.53-0.338,0.709-1.233,1.014-1.814c-1.618-1.705-3.349-1.764-5.276-1.449
		c-2.8,0.459-4.169-0.685-4.475-3.476c-0.215-1.956-0.337-3.935-0.717-5.857c-0.957-4.774-2.008-9.527-3.063-14.281
		c-1.225-5.515-2.148-11.122-4.756-16.241c-0.413-0.811-0.652-1.726-0.882-2.611c-1.172-4.446-2.134-8.953-4.301-13.08
		c-0.479-0.905-0.576-2.015-0.812-3.039c-0.094-0.404-0.604-0.943,0.38-1.229c1.703,3.067,3.527,6.102,5.104,9.249
		c1.523,3.058,2.696,6.284,4.197,9.352c1.566,3.188,3.282,6.311,4.333,9.722c0.999,3.273,1.857,6.595,2.983,9.821
		c1.144,3.277,1.237,6.856,2.827,10.505c0.639-0.891,1.051-1.36,1.337-1.895c2.983-5.591,5.365-11.438,7.457-17.404
		c1.262-3.593,2.739-7.189,3.391-10.909c0.985-5.65,3.138-10.848,5.169-16.114c1.885-4.915,3.977-9.755,5.674-14.73
		c2.252-6.595,4.227-13.287,6.267-19.951c0.22-0.698,0.107-1.501,0.141-2.246c-5.539-3.255-11.575-5.501-15.59-10.866
		c0.521-0.115,0.803-0.277,0.99-0.197c1.585,0.633,3.255,1.14,4.703,2.012c6.351,3.817,13.222,6.425,20.092,9.107
		c8.869,3.462,18.047,4.704,27.432,4.831c6.453,0.089,12.888-0.326,19.289-1.252c12.564-1.815,23.708-6.697,33.346-15.031
		c7.241-6.266,11.584-14.191,13.962-23.342c1.021-3.921,0.427-7.86,0.183-11.781c-0.638-10.205-4.985-18.735-12.339-25.691
		c-2.852-2.691-6.153-4.924-9.258-7.344c-1.211-0.943-1.548-1.708-1.173-3.011c0.104-0.375,0.271-0.736,0.432-1.097
		c1.224-2.763,2.504-5.497,3.662-8.285c1.665-4.01,3.345-8.015,4.831-12.093c1.482-4.075,2.673-8.259,4.113-12.351
		c4.539-12.89,6.96-26.182,7.434-39.806c0.183-5.26,0.027-10.547-0.314-15.795c-0.291-4.456-1.056-8.883-1.646-13.319
		c-0.103-0.774-0.248-1.595-0.586-2.289c-1.834-3.78-3.325-7.767-5.966-11.092c-2.129-2.675-4.413-5.234-6.688-7.79
		c-2.65-2.978-5.849-5.294-9.239-7.344c-1.693-1.018-3.386-2.04-5.103-3.016c-5.951-3.386-11.922-6.739-18.812-7.921
		c-1.814-0.31-3.615-0.685-5.412-1.112c-7.387-1.763-14.792-1.904-22.338-0.933c-8.146,1.05-16.054,2.889-23.675,5.867
		c-11.438,4.464-22.469,9.694-32.003,17.662c-5.268,4.399-10.347,8.927-14.342,14.6c-2.739,3.897-5.281,7.865-7.134,12.257
		c-0.31,0.725-0.713,1.409-1.046,2.122c-2.251,4.751-4.821,9.389-6.674,14.292c-2.973,7.867-5.613,15.868-6.669,24.292
		c-0.633,5.093-1.468,10.163-2.101,15.251c-0.619,4.962-1.027,9.952-1.655,14.914c-0.915,7.18-1.857,14.36-2.94,21.512
		c-1.107,7.298-2.65,14.506-5.727,21.278c-2.34,5.147-4.765,10.257-7.138,15.393c-0.263,0.563-0.408,1.173-0.633,1.834
		c0.825,0.544,1.52,0.909,2.115,1.397c3.175,2.617,5.825,6.632,3.879,11.842c-1.792,4.798-3.152,9.778-6.097,14.069
		c-1.412,2.06-2.833,4.128-4.399,6.069c-1.449,1.801-2.416,3.729-2.612,6.05c-0.122,1.439-0.356,2.87-0.6,4.301
		c-0.572,3.315-2.279,5.933-5.291,7.438c-4.15,2.078-8.489,3.527-13.258,3.283c-3.902-0.197-7.208-1.357-9.319-4.912
		c-0.525-0.882-0.989-1.902-2.387-2.055c-1.163,0.603-1.618,1.879-2.218,3.004c-2.95,5.581-6.045,11.104-7.213,17.428
		c-0.117,0.638-0.479,1.229-0.652,1.859c-0.624,2.282-1.294,4.547-1.792,6.854c-0.385,1.796-0.488,3.653-0.792,5.469
		c-1.937,11.703-1.792,23.273,1.5,34.789c1.721,6.022,4.249,11.612,7.471,16.902c3.729,6.12,9.131,10.074,16.199,11.659
		c5,1.126,9.976,2.376,14.989,3.419c3.344,0.701,6.735,1.146,10.111,1.688c6.439,1.027,12.869,0.816,19.243-0.417
		c2.457-0.474,4.783-1.496,6.833-2.983c2.607-1.895,2.823-4.858,0.53-7.133c-1.22-1.201-2.636-2.13-4.344-2.617
		c-2.917-0.835-5.853-1.436-8.868-1.839c-3.25-0.436-6.228-0.609-8.826,1.919c-0.929,0.904-2.279,1.346-3.658,0.479
		c-0.084-1.675,1.158-2.562,2.096-3.626c1.566-1.772,3.269-3.447,4.648-5.355c2.157-2.987,4.089-6.14,6.111-9.221
		c1.763-2.691,2.818-5.637,3.043-8.861c0.221-3.154,0.324-6.315,0.666-9.452c0.464-4.24,0.052-8.424-0.68-12.569
		c-1.67-9.502-7.959-14.755-16.612-17.751c-0.488-0.164-1.041-0.164-1.562-0.202c-5.046-0.361-9.98,0.052-14.778,1.815
		C59.677,282.624,56.563,283.975,53.848,286.146z M265.995,183.09c3.883-3.4,5.628-7.285,5.37-12.043
		c-0.483-8.932-1.656-17.76-3.973-26.413c-0.408-1.52-0.731-3.065-1.191-4.568c-0.206-0.675-0.661-1.275-1.257-2.377
		c-2.241,6.139-4.23,11.809-6.378,17.418c-2.148,5.595-4.597,11.068-6.463,16.94C257.694,174.487,261.845,178.471,265.995,183.09z
		 M158.676,288.768c-0.313,0.075-0.529,0.07-0.558,0.141c-2.396,6.102-4.793,12.208-7.157,18.323
		c-0.188,0.483-0.168,1.037-0.271,1.553c-0.845,4.259-1.444,8.582-2.617,12.747c-1.384,4.924-3.203,9.731-4.947,14.548
		c-1.061,2.927-2.336,5.773-3.564,8.794c1.341,0.755,2.472,1.393,3.583,2.023c3.32-1.568,5.538-4.012,7.171-7.166
		c3.568-6.901,5.201-14.335,6.017-21.941c0.967-9.02,1.107-18.115,2.435-27.105C158.854,290.076,158.714,289.429,158.676,288.768z
		 M101.698,340.394c-0.548-1.88-3.85-8.343-5.168-10.113c-2.992,3.28-5.093,6.667-5.571,8.95
		C94.533,339.618,98.111,340.005,101.698,340.394z"/>
	<path fill-rule="evenodd" clip-rule="evenodd" fill="#20323D" d="M215.954,351.889c5.67,0.07,11.27-0.291,16.879-1.406
		c3.841-0.77,7.851-0.709,11.79-0.938c2.847-0.159,5.492,0.53,7.771,2.326c1.52,1.196,3.245,1.608,5.154,1.642
		c3.592,0.057,7.044,0.898,10.383,2.176c0.976,0.375,1.933,0.825,2.847,1.332c1.145,0.633,1.613,1.684,1.576,2.974
		c-0.033,1.369-0.844,2.171-2.021,2.641c-2.472,0.989-5.098,1.477-7.715,1.481c-4.324,0.01-8.676,0.619-12.986-0.417
		c-1.426-0.343-2.875-0.08-4.254,0.506c-1.692,0.723-3.489,1.243-5.083,2.13c-2.19,1.21-4.484,1.449-6.871,1.299
		c-1.571-0.101-3.133-0.398-4.699-0.581c-5.356-0.629-10.722-1.191-16.067-1.891c-3.645-0.474-7.288-1.024-10.886-1.772
		c-1.501-0.31-3.006-1.027-4.286-1.895c-2.157-1.459-2.435-4.277-0.666-6.2c0.773-0.845,1.801-1.529,2.828-2.055
		c2.884-1.463,6.021-1.829,9.211-1.735C211.227,351.57,213.59,351.758,215.954,351.889z M198.521,357.512
		c1.126,0.664,1.843,1.253,2.664,1.529c1.744,0.581,3.522,1.064,5.318,1.468c4.61,1.036,9.206,2.186,13.863,2.95
		c3.883,0.633,7.837,0.914,11.767,1.088c1.515,0.065,3.203-0.305,4.559-0.989c2.378-1.196,4.934-1.806,7.396-2.702
		c1.81-0.658,3.682-0.736,5.426-0.094c4.845,1.778,9.858,1.499,14.844,1.36c1.801-0.047,3.606-0.609,5.365-1.102
		c0.9-0.254,0.976-1.755,0.174-2.303c-0.53-0.356-1.136-0.643-1.74-0.863c-3.616-1.318-7.358-2.063-11.19-2.195
		c-2.34-0.084-4.39-0.698-6.162-2.232c-1.675-1.444-3.677-2.035-5.844-1.997c-4.08,0.074-8.203-0.127-12.222,0.417
		c-4.597,0.619-9.179,0.609-13.774,0.734c-4.075,0.109-8.16,0.251-12.217,0.635C203.723,353.502,200.876,354.459,198.521,357.512z"
		/>
	<path fill-rule="evenodd" clip-rule="evenodd" fill="#20323D" d="M240.421,274.459c1.44,0.947,1.82,2.236,2.195,3.471
		c1.275,4.146,2.298,8.357,2.021,12.742c-0.104,1.684-0.361,3.407-0.868,5.014c-1.106,3.545-4.91,4.324-7.419,1.575
		c-0.689-0.76-1.36-1.672-1.67-2.631c-1.22-3.846-1.59-7.762,0.417-11.452C236.711,280.204,238.615,277.39,240.421,274.459z
		 M240.515,282.549c-2.725,3.189-3.165,6.721-1.801,10.491c0.122,0.338,0.689,0.516,1.182,0.86
		C241.641,290.034,240.834,286.277,240.515,282.549z"/>
	<path fill-rule="evenodd" clip-rule="evenodd" fill="#20323D" d="M147.599,129.546c0.197,0.769,0.328,2.125,0.882,3.283
		c2.477,5.178,3.26,10.815,4.441,16.323c0.999,4.622,1.496,9.349,2.214,14.03c-0.652,6.777,0.281,13.681-1.899,20.35
		c-1.229,3.742-3.265,6.894-6.004,9.591c-2.921,2.88-6.94,3.489-10.575,1.637c-7.467-3.804-12.18-9.82-14.14-17.995
		c-1.735-7.241-2.078-14.543-1.511-21.958c0.455-5.9,0.53-11.828,0.765-17.744c0.028-0.767,0.005-1.536,0.005-2.521
		c-1.275-0.122-2.303-0.155-3.302-0.329c-4.517-0.778-7.33-3.456-8.109-7.973c-1.069-6.219,0.413-11.736,4.888-16.337
		c2.691-2.774,5.843-4.875,9.258-6.648c5.787-3.002,11.973-4.751,18.375-5.717c2.316-0.354,4.746-0.319,7.086-0.099
		c4.709,0.45,8.799,4.216,9.258,8.372c0.708,6.359-0.984,11.969-5.394,16.712C151.866,124.64,149.99,126.84,147.599,129.546z"/>
	<path fill-rule="evenodd" clip-rule="evenodd" fill="#20323D" d="M235.206,220.502c-4.493,0.117-8.896-0.319-13.216-1.693
		c-3.438-1.098-6.528-2.744-9.197-5.147c-3.283-2.966-4.957-6.709-5.131-11.117c-0.075-2.05,0.582-3.841,1.899-5.445
		c1.96-2.392,4.357-4.159,7.185-5.365c4.888-2.082,10.004-3.322,15.294-3.349c4.188-0.023,8.423,0.219,12.555,0.863
		c4.493,0.708,8.484,2.908,11.627,6.209c3.086,3.246,4.375,7.15,2.569,11.568c-0.745,1.817-1.641,3.58-2.565,5.311
		c-0.811,1.534-2.077,2.652-3.503,3.658c-4.559,3.218-9.534,4.906-15.153,4.512C236.781,220.455,235.994,220.502,235.206,220.502z"
		/>
	<path fill-rule="evenodd" clip-rule="evenodd" fill="#20323D" d="M183.167,197.507c0.305-3.377,1.59-6.915,5.089-9.464
		c2.964-2.165,6.246-3.307,9.829-3.63c2.083-0.192,2.945,1.182,2.008,2.992c-0.239,0.464-0.554,0.896-0.882,1.304
		c-2.565,3.165-3.62,6.929-4.306,10.843c-0.112,0.64-0.271,1.28-0.422,1.916c-0.549,2.343-2.129,3.529-4.427,3.848
		c-2.448,0.343-4.404-0.525-5.75-2.584C183.425,201.379,183.134,199.824,183.167,197.507z M194.952,188.681
		c-2.213,0.947-3.808,2.495-5.22,4.19c-1.2,1.442-1.585,3.283-1.786,5.114c-0.122,1.093,0.276,2.115,1.116,2.805
		c0.459,0.38,1.237,0.727,1.739,0.589c0.474-0.125,0.999-0.856,1.111-1.396C192.696,196.18,193.269,192.329,194.952,188.681z"/>
	<path fill-rule="evenodd" clip-rule="evenodd" fill="#20323D" d="M217.9,173.776c-0.234,2.8-1.431,5.794-3.602,8.353
		c-1.459,1.712-3.94,1.25-4.808-0.797c-1.848-4.367,0.146-9.469,4.54-11.627c1.843-0.905,3.424-0.105,3.737,1.933
		C217.849,172.153,217.835,172.679,217.9,173.776z"/>
	<path fill-rule="evenodd" clip-rule="evenodd" fill="#20323D" d="M239.179,173.429c-0.249,3.484-1.37,6.242-3.546,8.456
		c-1.468,1.494-3.705,0.825-4.395-1.144c-1.294-3.71,0.39-8.55,3.729-10.707c1.168-0.755,2.763-0.467,3.362,0.769
		C238.779,171.717,238.972,172.763,239.179,173.429z"/>
	<path fill-rule="evenodd" clip-rule="evenodd" fill="#20323D" d="M207.602,159.734c0.356-0.131,0.708-0.384,1.046-0.366
		c3.803,0.202,7.288-0.736,10.472-2.814c0.441-0.286,0.915-0.525,1.379-0.76c1.332-0.675,2.182-0.691,2.425-0.061
		c0.403,1.042-0.164,1.801-0.83,2.439c-3.479,3.341-7.64,4.523-12.349,3.611C208.797,161.597,207.69,161.17,207.602,159.734z"/>
	<path fill-rule="evenodd" clip-rule="evenodd" fill="#20323D" d="M228.847,232.545c0.44-0.455,0.778-1.109,1.285-1.287
		c3.943-1.396,7.902-2.798,12.156-2.856c0.497-0.007,0.989,0.228,1.758,0.42c-0.267,0.551-0.37,1.243-0.67,1.337
		c-4.479,1.431-9,2.72-13.732,2.982C229.466,233.146,229.269,232.866,228.847,232.545z"/>
	<path fill-rule="evenodd" clip-rule="evenodd" fill="#20323D" d="M243.334,156.911c-0.376,0.272-0.835,0.875-1.342,0.919
		c-2.969,0.263-6.261-2.692-6.299-5.637c-0.009-0.567,0.305-1.365,0.736-1.656c0.432-0.286,1.464-0.333,1.782-0.023
		c1.735,1.712,3.34,3.555,4.962,5.379C243.319,156.053,243.263,156.391,243.334,156.911z"/>
	<path fill-rule="evenodd" clip-rule="evenodd" fill="#20323D" d="M231.862,357.728c-2.167,1.541-4.577,0.999-6.866,1.018
		c-2.279,0.012-2.279-0.079-4.652-1.458C222.14,356.273,227.294,356.462,231.862,357.728z"/>
	<path fill-rule="evenodd" clip-rule="evenodd" fill="#20323D" d="M243.235,354.473c-0.01,0.08-0.005,0.221-0.028,0.226
		c-0.211,0.04-0.427,0.061-0.643,0.084c0.019-0.141,0.033-0.283,0.047-0.427C242.822,354.394,243.028,354.431,243.235,354.473z"/>
</g>
</svg>
