<svg width="194" height="194" viewBox="0 0 194 194" fill="none" xmlns="http://www.w3.org/2000/svg">
<path d="M181.1 133.2L149.2 38.9C148.3 36.7 146.1 35.3 143.8 36.2L120.9 43.8C118.7 44.7 117.8 46.9 118.2 49.2L150.1 144C151 146.2 153.3 147.1 155.5 146.7L178.4 138.6C180.6 138.1 182 135.4 181.1 133.2ZM147.5 115.6L130 65C129.1 62.4 130.7 59.4 133.5 58.5L142.3 55.5C145.1 54.5 148.2 55.9 149.1 58.5L166.6 109.1C167.5 111.7 166 114.7 163.1 115.6L154.3 118.6C151.4 119.6 148.4 118.2 147.5 115.6ZM169.6 134.2L159.8 137.6C157.2 138.5 154.3 137.1 153.4 134.5L152.3 131.3C151.4 128.7 152.8 125.8 155.4 124.9L165.2 121.5C167.8 120.6 170.7 122 171.6 124.6L172.7 127.8C173.6 130.4 172.2 133.3 169.6 134.2Z" fill="#0B5998"/>
<path d="M112.5 38.4H88.7C86.5 38.4 84.2 40.2 84.2 42.9V142.2C84.2 144.9 86.4 146.7 88.7 146.7H112.5C115.2 146.7 117 144.9 117 142.2V42.9C117 40.2 115.2 38.4 112.5 38.4ZM90.9 50.8C90.9 48.1 93.2 46 96.1 46H105C107.9 46 110.2 48.2 110.2 50.8V67.6C110.2 70.3 107.9 72.4 105 72.4H96.1C93.2 72.4 90.9 70.2 90.9 67.6V50.8ZM110.2 117.9C110.2 120.6 107.9 122.7 105 122.7H96.1C93.2 122.7 90.9 120.5 90.9 117.9V101C90.9 98.3 93.2 96.2 96.1 96.2H105C107.9 96.2 110.2 98.4 110.2 101V117.9ZM110.3 85.8C110.3 88.5 108.1 90.6 105.5 90.6H95.6C92.9 90.6 90.8 88.4 90.8 85.8V82.6C90.8 79.9 93 77.8 95.6 77.8H105.5C108.2 77.8 110.3 80 110.3 82.6V85.8Z" fill="#0B5998"/>
<path d="M186 151.7H8.10001V159.5H186V151.7Z" fill="#0B5998"/>
<path d="M75 38.4H50.8C48.6 38.4 46.8 40.2 46.8 42.9V142.2C46.8 144.9 48.6 146.7 50.8 146.7H75C77.2 146.7 79 144.9 79 142.2V42.9C79.1 40.2 77.3 38.4 75 38.4ZM73 131.7C73 134.5 70.8 136.7 68 136.7H57.6C54.8 136.7 52.6 134.4 52.6 131.7V128.3C52.6 125.5 54.8 123.3 57.6 123.3H68C70.8 123.3 73 125.6 73 128.3V131.7ZM73.3 112C73.3 114.8 70.9 117.1 67.9 117.1H58.6C55.6 117.1 53.2 114.8 53.2 112V58.4C53.2 55.6 55.6 53.4 58.6 53.4H67.9C70.9 53.4 73.3 55.7 73.3 58.4V112Z" fill="#A35700"/>
<path d="M37.4 38.4H13.1C10.9 38.4 9.10001 40.2 9.10001 42.9V142.2C9.10001 144.9 10.9 146.7 13.1 146.7H37.4C39.6 146.7 41.4 144.9 41.4 142.2V42.9C41.4 40.2 39.6 38.4 37.4 38.4ZM35.2 131.9C35.2 134.7 32.7 137.1 29.7 137.1H20.2C17.1 137.1 14.7 134.8 14.7 131.9V77.3C14.7 74.4 17.2 72.1 20.2 72.1H29.7C32.8 72.1 35.2 74.4 35.2 77.3V131.9ZM35.5 61.2C35.5 64.1 33.2 66.4 30.4 66.4H20C17.2 66.4 14.9 64.1 14.9 61.2V57.8C14.9 55 17.2 52.7 20 52.7H30.4C33.2 52.7 35.5 55 35.5 57.8V61.2Z" fill="#0B5998"/>
</svg>
