<svg width="249" height="413" viewBox="0 0 249 413" fill="none" xmlns="http://www.w3.org/2000/svg">
<path fill-rule="evenodd" clip-rule="evenodd" d="M49.953 143.558C49.344 138.631 48.763 134.099 48.241 129.558C48.035 127.768 47.902 125.962 47.85 124.16C47.653 116.924 47.976 109.697 48.584 102.489C48.876 99.017 49.412 95.543 50.146 92.135C52.155 82.831 54.52 73.623 57.944 64.712C58.901 62.218 60.065 59.849 61.54 57.649C63.553 54.649 65.686 51.733 67.754 48.768C68.076 48.305 68.325 47.781 68.754 47.03C67.982 46.978 67.531 46.875 67.101 46.931C59.402 47.944 51.703 47.673 44.046 46.601C40.954 46.167 37.961 45.146 35.231 43.506C30.405 40.605 28.292 35.631 29.692 30.226C29.956 29.205 30.411 28.14 31.068 27.331C32.739 25.28 34.493 23.199 36.913 22.018C39.934 20.546 43.016 19.151 46.183 18.044C50.393 16.576 54.767 17.241 59.084 17.61C63.2 17.971 67.015 19.572 70.985 20.541C73.787 21.224 76.603 21.872 79.426 22.451C82.619 23.103 87.76 24.928 92.816 27.344C93.335 27.108 93.988 26.844 94.618 26.526C103.6 22.044 112.973 18.649 122.775 16.477C129.427 15.005 136.144 15.005 142.913 15.464C153.688 16.193 163.567 19.876 173.251 24.292C174.237 24.742 175.16 25.326 176.156 25.751C185.64 29.836 192.661 36.854 198.892 44.814C201.669 48.359 203.595 52.406 205.38 56.475C208.534 63.655 211.008 71.038 211.84 78.942C212.333 83.628 212.715 88.276 212.333 93.173C212.917 93.593 213.552 94.126 214.251 94.55C216.312 95.799 218.419 96.98 220.462 98.25C226.032 101.713 230.19 106.469 233.083 112.332C234.86 115.926 235.22 119.665 234.164 123.576C233.173 127.242 230.972 129.777 227.409 130.988C222.994 132.488 218.465 132.931 213.908 131.612C211.376 130.88 208.883 130.022 206.162 129.155C205.883 129.74 205.496 130.326 205.316 130.97C203.633 137 201.986 143.038 200.321 149.073C200.161 149.652 199.969 150.222 199.741 150.779C196.274 159.287 193.883 168.102 192.149 177.115C190.917 183.496 189.526 189.848 188.291 196.232C187.811 198.711 187.549 201.23 187.21 203.736C187.029 205.048 186.905 206.367 186.725 207.675C185.382 217.363 184.665 227.091 185.081 236.863C185.236 240.583 185.841 244.282 186.244 247.986C186.296 248.471 186.393 248.948 186.378 249.426C186.24 253.349 187.407 257.032 188.386 260.758C189.721 265.887 191.026 271.02 192.356 276.152C194.132 283.041 196.519 289.718 199.124 296.336C200.837 300.701 202.206 305.207 203.073 309.837C203.338 311.25 203.665 312.653 204.02 314.333C204.776 313.971 205.501 313.82 205.935 313.383C208.3 310.984 210.699 308.598 212.887 306.04C214.745 303.864 215.307 301.057 215.612 298.309C216.359 291.642 215.964 285.08 213.372 278.767C212.788 277.359 212.012 275.968 212.017 274.44C212.788 273.698 213.455 273.948 214.038 274.411C215.678 275.712 216.802 277.407 217.69 279.284C218.669 281.35 219.616 283.441 220.723 285.441C222.402 288.481 222.805 291.856 223.255 295.173C223.95 300.311 224.303 305.492 223.35 310.657C223.067 312.194 222.886 313.79 222.315 315.228C219.449 322.403 215.231 328.643 208.969 333.304C207.356 334.503 205.449 335.311 203.265 336.532C201.686 339.484 199.879 342.871 198.81 346.608C197.835 349.99 197.219 353.368 197.395 356.925C197.672 362.701 197.806 368.487 197.845 374.268C197.869 377.997 197.772 381.739 197.453 385.456C197.101 389.599 195.406 393.111 191.669 395.357C191.463 395.476 191.192 395.576 191.081 395.764C189.214 398.892 185.977 399.197 182.893 399.523C178.825 399.953 174.721 400.124 170.631 400.309C167.297 400.459 164.182 399.415 161.249 397.987C156.516 395.678 155.803 390.098 159.795 386.631C161.043 385.55 162.637 384.851 164.121 384.078C165.057 383.592 166.086 383.283 167.336 382.793C166.924 382.087 166.717 381.544 166.357 381.143C164.182 378.714 161.791 376.521 159.044 374.731C156.169 372.856 153.83 370.479 152.204 367.418C151.817 366.692 151.217 366.075 150.697 365.388C147.414 365.133 144.199 364.775 140.77 365.117C140.642 365.735 140.393 366.298 140.426 366.847C140.701 371.168 141.16 375.49 141.289 379.821C141.375 382.572 141.155 385.37 140.753 388.094C140.212 391.746 137.976 394.206 134.486 395.351C132.667 395.952 130.749 396.471 128.856 396.571C124.044 396.808 119.213 397.037 114.44 396.068C113.621 395.905 112.793 395.682 112.037 395.335C109.282 394.06 108.252 392.348 108.53 389.296C108.776 386.584 109.664 384.13 111.933 382.378C112.397 382.026 112.843 381.645 113.517 381.091C112.985 380.594 112.624 380.156 112.169 379.851C106.303 375.938 101.401 370.963 96.724 365.754C93.887 362.586 91.673 358.998 89.974 355.114C89.352 353.684 88.836 352.182 88.519 350.659C86.922 342.947 86.343 335.192 87.356 327.317C87.892 323.131 88.176 318.928 89.596 314.91C89.832 314.244 89.896 313.488 89.896 312.778C89.879 310.373 89.905 307.955 89.712 305.558C89.477 302.653 89.468 299.781 90.171 296.94C90.385 296.051 90.201 295.301 89.754 294.532C88.908 293.078 88.123 291.589 87.329 290.15C85.548 289.735 83.754 289.461 82.059 288.893C77.647 287.415 74.738 284.344 73.295 279.95C72.699 278.128 72.291 276.228 71.961 274.336C71.063 269.197 69.119 264.382 67.299 259.543C66.544 257.526 64.861 256.002 63.111 254.702C61.055 253.174 59.325 251.337 57.871 249.247C55.06 245.196 55.081 242.879 57.924 238.711C58.055 238.523 58.124 238.291 58.289 237.935C56.461 236.412 54.304 235.369 52.145 234.364C44.905 230.992 38.708 226.363 34.279 219.619C31.899 215.993 29.639 212.293 27.335 208.619C27.082 208.212 26.863 207.774 26.704 207.323C24.485 201.154 22.955 194.879 23.54 188.234C23.88 184.398 24.042 180.574 25.214 176.827C26.223 173.591 27.278 170.402 28.983 167.475C31.283 163.522 33.352 159.433 36.128 155.759C39.143 151.763 42.722 148.416 46.874 145.652C47.875 144.99 48.854 144.309 49.953 143.558ZM165.721 100.675C166.887 101.559 167.339 101.924 167.807 102.254C170.073 103.836 172.312 105.452 174.617 106.973C176.124 107.966 177.699 108.863 179.283 109.73C182.024 111.228 184.716 112.863 187.574 114.104C194.762 117.211 201.835 120.542 208.839 124.043C210.982 125.112 213.243 125.989 215.529 126.721C218.581 127.691 221.722 127.606 224.778 126.685C227.508 125.859 228.73 124.198 228.842 121.37C228.927 119.183 228.546 117.091 227.584 115.061C225.349 110.344 221.718 106.851 217.727 103.694C207.989 95.988 197.187 90.294 185.303 86.658C184.269 86.341 183.208 86.077 182.218 85.65C181.737 85.444 181.381 84.929 180.986 84.573C181.67 83.196 182.742 83.133 183.831 83.096C186.904 82.985 189.806 83.825 192.626 84.882C196.342 86.275 200.003 87.83 203.702 89.272C204.415 89.547 205.213 89.616 206.273 89.847C206.273 88.817 206.324 88.105 206.264 87.401C205.881 82.963 205.487 78.53 205.058 74.097C204.933 72.779 204.8 71.444 204.478 70.17C202.827 63.607 200.359 57.346 197.337 51.291C194.492 45.6 183.205 34.154 178.441 31.652C175.668 30.197 172.973 28.596 170.187 27.168C161.205 22.559 151.777 19.417 141.622 18.823C136.575 18.525 131.499 18.185 126.486 19.164C121.765 20.087 117.027 20.997 112.4 22.284C103.663 24.722 95.29 28.039 87.796 33.305C78.338 39.957 70.218 47.943 63.737 57.535C62.669 59.119 61.776 60.861 61.106 62.647C59.964 65.683 58.98 68.792 58.094 71.915C57.141 75.269 56.248 78.65 55.579 82.071C55.025 84.899 54.878 87.804 54.489 90.667C53.261 99.761 53.163 108.919 52.866 118.065C52.631 125.322 53.549 132.493 54.638 139.643C54.888 141.282 55.25 142.9 55.613 144.791C55.17 145.149 54.581 145.746 53.883 146.171C47.862 149.874 42.515 154.363 38.613 160.277C35.901 164.383 33.682 168.821 31.313 173.148C30.797 174.085 30.566 175.179 30.235 176.211C28.57 181.451 28.31 186.876 28.443 192.301C28.561 197.15 29.554 201.901 31.662 206.288C33.275 209.648 35.247 212.836 37.14 216.053C39.819 220.604 43.59 224.093 47.889 227.098C50.38 228.84 53.232 229.858 55.809 231.376C58.871 233.179 62.071 234.411 65.534 235.075C66.71 235.301 67.843 235.766 69.019 236.015C74.195 237.114 79.349 238.362 84.572 239.199C90.872 240.203 97.237 240.766 103.627 241.043C107.36 241.204 111.081 241.401 114.803 240.869C117.781 240.444 120.754 239.964 123.746 239.646C125.53 239.451 127.342 239.479 129.145 239.5C129.521 239.505 129.899 239.9 130.247 240.102C129.852 241.394 128.822 241.629 127.952 241.896C121.831 243.741 115.681 245.436 109.181 245.063C108.009 244.992 106.82 245.133 105.622 245.178C105.322 246.079 104.996 246.736 104.893 247.431C103.914 253.88 102.081 260.139 100.125 266.315C98.966 269.985 99.631 273.363 99.841 276.923C100.88 277.082 101.703 277.271 102.541 277.327C106.274 277.566 109.939 278.193 113.601 278.962C115.991 279.459 118.261 280.095 120.395 281.286C121.429 281.865 122.494 282.485 123.75 282.236C126.849 280.03 133.342 273.958 134.535 272.112C133.118 269.929 132.689 267.468 133.354 264.92C133.964 262.576 134.994 260.39 136.539 258.486C139.899 254.349 145.654 252.397 151.195 254.293C158.448 256.778 162.941 262.207 166.237 268.61C168.456 272.911 169.013 277.809 168.456 282.714C168.091 285.905 167.225 289.021 164.744 291.123C160.874 294.41 156.547 296.707 151.169 294.853C150.968 294.779 150.701 294.878 150.393 294.895C150.165 295.093 149.856 295.291 149.642 295.565C146.149 300.101 141.591 303.504 137.23 307.096C135.948 308.155 134.372 308.877 132.896 309.676C129.115 311.722 124.991 312.081 120.944 311.182C117.09 310.328 113.292 309.024 109.649 307.491C104.768 305.444 100.083 302.942 95.687 299.938C94.842 299.354 94.052 298.445 92.816 298.715C91.975 301.89 91.507 305.933 91.97 308.689C93.086 315.328 93.807 322.041 96.266 328.409C100.013 338.137 105.574 346.345 114.943 351.48C123.711 356.288 132.87 359.759 143.089 359.437C144.389 359.395 145.724 359.88 147.178 359.154C146.977 358.258 146.805 357.339 146.565 356.441C145.144 351.164 144.21 345.748 145.042 340.352C146.261 332.498 148.209 324.834 152.114 317.718C155.853 310.92 161.445 306.16 167.645 301.895C167.937 301.698 168.297 301.547 168.641 301.504C169.04 301.454 169.452 301.552 170.249 301.619C169.605 302.401 169.263 302.873 168.855 303.289C167.167 305.006 165.434 306.684 163.764 308.427C159.899 312.461 156.722 316.944 154.645 322.19C152.676 327.16 151.645 332.327 150.89 337.588C150.388 341.068 150.366 344.524 150.727 348.026C151.461 355.189 154.568 361.411 158.297 367.362C159.893 369.909 162.169 371.914 164.589 373.763C167.837 376.252 170.961 378.907 174.052 381.59C175.467 382.819 175.1 384.942 173.459 385.831C172.927 386.113 172.349 386.299 171.777 386.482C169.944 387.079 168.068 387.559 166.283 388.263C164.966 388.786 163.653 389.456 162.533 390.314C161.413 391.168 161.705 392.627 163.005 393.233C165.099 394.199 167.284 394.827 169.619 394.866C174.45 394.946 179.249 394.568 184.047 394.049C186.248 393.818 187.979 393.172 188.883 391.011C189.022 390.685 189.305 390.423 189.545 390.152C190.952 388.548 191.669 386.651 191.797 384.556C191.991 381.308 192.386 378.046 192.189 374.819C191.803 368.656 192.107 362.538 192.425 356.399C192.566 353.716 193.017 351.128 194.033 348.662C194.857 346.659 195.865 344.734 196.716 342.743C197.231 341.542 197.841 340.297 197.987 339.022C198.622 333.52 199.15 328.014 199.05 322.453C198.904 314.023 197.007 305.976 194.026 298.179C192.172 293.334 190.666 288.398 189.386 283.381C188.738 280.827 188.257 278.235 187.726 275.794C187.343 275.583 187.133 275.373 186.927 275.375C182.957 275.391 180.785 273.051 179.45 269.654C177.682 265.161 177.355 260.507 178.154 255.79C178.639 252.906 179.631 250.207 181.802 248.087C182.218 247.679 182.552 247.182 183.013 246.615C182.695 243.854 182.367 241.113 182.063 238.361C181.905 236.927 181.69 235.491 181.672 234.053C181.616 228.627 181.51 223.203 181.644 217.784C181.909 207.276 183.429 196.903 185.527 186.63C187.935 174.832 190.719 163.122 194.226 151.588C194.848 149.537 195.024 147.344 195.389 145.217C195.715 143.318 195.873 141.379 196.376 139.533C197.445 135.58 198.693 131.684 199.865 127.761C200.028 127.208 200.16 126.645 200.344 125.946C199.297 125.366 198.37 124.839 197.43 124.336C195.521 123.315 193.58 122.341 191.689 121.285C183.243 116.573 175.805 110.383 167.857 104.943C167.089 104.415 166.488 103.6 165.93 102.827C165.716 102.521 165.831 101.971 165.721 100.675ZM90.59 322.06C89.684 327.3 89.465 331.969 89.44 336.664C89.397 345.743 92.603 353.607 98.358 360.466C100.357 362.852 102.727 364.933 104.95 367.13C108.73 370.863 112.761 374.263 117.4 376.917C118.743 377.688 120.013 378.649 121.15 379.7C122.748 381.185 122.319 382.764 120.215 383.508C119.197 383.868 118.147 384.13 117.108 384.413C114.885 385.026 113.713 386.533 113.284 388.741C112.864 390.91 113.267 391.593 115.413 392.017C119.59 392.837 123.812 392.61 128.014 392.412C129.43 392.344 130.825 391.799 132.224 391.456C134.726 390.847 136.172 389.224 136.541 386.713C136.73 385.413 136.828 384.069 136.765 382.756C136.503 377.349 136.185 371.945 135.838 366.545C135.79 365.877 135.442 365.225 135.249 364.598C134.026 364.303 132.987 364.019 131.936 363.796C123.708 362.041 116.198 358.636 109.19 354.05C105.19 351.436 102.104 347.977 99.62 343.896C96.397 338.605 94.019 333.008 92.586 326.983C92.234 325.501 91.899 323.954 90.59 322.06ZM94.659 278.358C94.607 271.812 93.71 265.754 90.943 260.161C88.44 255.093 85.548 250.217 82.982 245.179C82.235 243.714 81.304 243.027 79.746 242.723C74.558 241.716 69.391 240.592 63.885 239.444C63.597 239.607 62.971 239.949 62.352 240.304C60.657 241.283 60.069 242.734 60.717 244.484C60.919 245.043 61.271 245.553 61.61 246.042C62.92 247.952 64.486 249.609 66.417 250.892C67.846 251.854 69.224 252.991 69.726 254.616C70.443 256.952 71.803 258.948 72.743 261.154C74.451 265.141 76.017 269.169 76.713 273.497C76.997 275.266 77.546 277.013 78.121 278.72C78.752 280.594 79.911 282.164 81.61 283.197C83.352 284.258 85.172 285.24 87.537 284.798C88.848 281.68 91.307 279.662 94.659 278.358ZM92.835 253.356C96.465 252.135 98.638 249.26 101.418 247.264C101.835 246.964 101.792 246.024 102.015 245.183C97.724 244.823 93.689 244.475 89.656 244.157C89.072 244.113 88.475 244.226 87.887 244.286C87.819 244.291 87.762 244.45 87.703 244.54C87.668 244.655 87.57 244.811 87.613 244.878C89.294 247.627 90.99 250.367 92.835 253.356ZM99.135 253.856C98.964 253.718 98.788 253.584 98.616 253.451C97.68 254.32 96.732 255.17 95.822 256.064C95.582 256.298 95.384 256.633 95.294 256.96C95.02 257.941 96.071 259.814 97.376 260.654C97.972 258.362 98.552 256.11 99.135 253.856Z" fill="#868686"/>
<path fill-rule="evenodd" clip-rule="evenodd" d="M74.806 156.503C82.905 156.449 90.565 158.185 97.823 161.788C99.673 162.706 101.432 163.745 102.852 165.247C105.71 168.247 106.294 171.761 104.904 175.602C103.54 179.357 101.015 182.263 97.707 184.397C95.6 185.76 93.269 186.788 91.02 187.929C90.488 188.198 89.892 188.425 89.308 188.474C84.523 188.892 79.729 189.661 74.94 188.583C71.198 187.742 67.357 187.295 63.791 185.708C61.349 184.623 59.052 183.356 57.057 181.575C53.692 178.571 51.662 174.861 51.066 170.361C50.461 165.799 52.602 161.718 56.816 159.735C60.339 158.079 64.134 157.371 67.962 156.916C70.226 156.651 72.522 156.634 74.806 156.503Z" fill="#868686"/>
<path fill-rule="evenodd" clip-rule="evenodd" d="M113.744 138.596C113.379 141.326 113.151 144.09 112.589 146.785C112.276 148.274 111.483 149.69 110.743 151.051C110.096 152.257 108.959 152.956 107.633 153.355C104.895 154.188 102.929 153.369 101.723 150.759C100.019 147.06 99.406 143.141 100.015 139.137C100.449 136.301 101.299 133.528 101.985 130.725C102.101 130.266 102.311 129.82 102.513 129.386C104.522 125.146 108.367 124.635 111.35 128.223C112.624 129.75 113.328 131.528 113.401 133.513C113.465 135.193 113.419 136.882 113.419 138.567C113.524 138.574 113.637 138.583 113.744 138.596Z" fill="#868686"/>
<path fill-rule="evenodd" clip-rule="evenodd" d="M73.664 134.219C71.175 133.987 69.149 133.796 67.12 133.618C65.399 133.47 63.849 132.987 62.579 131.279C63.095 131.056 63.476 130.746 63.854 130.746C71.665 130.798 79.48 130.867 87.295 130.992C88.484 131.009 89.673 131.305 90.849 131.541C91.304 131.631 91.853 131.803 92.119 132.131C92.544 132.661 92.926 133.322 93.033 133.975C93.145 134.687 92.24 135.541 91.377 135.592C90.428 135.648 89.467 135.543 88.51 135.486C87.798 135.443 87.09 135.366 86.15 135.279C85.982 136.137 85.789 136.914 85.682 137.708C85.351 140.206 85.098 142.712 84.729 145.206C84.608 146.019 84.304 146.842 83.93 147.584C82.162 151.156 78.218 151.939 75.193 149.348C73.854 148.198 72.965 146.739 72.974 144.975C72.986 142.099 73.176 139.224 73.317 136.35C73.347 135.778 73.497 135.214 73.664 134.219Z" fill="#868686"/>
<path fill-rule="evenodd" clip-rule="evenodd" d="M120.275 113.043C118.932 113.625 117.542 113.335 116.164 112.863C114.456 112.284 112.769 111.648 111.049 111.12C106.8 109.811 102.543 109.661 98.285 111.112C97.719 111.301 97.153 111.511 96.568 111.636C95.693 111.829 94.856 110.893 95.242 110.061C95.629 109.211 96.101 108.284 96.801 107.72C97.711 106.993 98.83 106.4 99.955 106.078C105.869 104.379 111.628 105.003 117.112 107.704C118.25 108.262 119.181 109.311 120.061 110.271C120.734 111.005 120.92 111.971 120.275 113.043Z" fill="#868686"/>
<path fill-rule="evenodd" clip-rule="evenodd" d="M108.319 202.34C107.208 203.22 106.104 203.589 104.889 203.722C96.761 204.593 88.813 206.333 81.019 208.803C80.702 208.902 80.328 208.862 79.573 208.914C80.058 208.247 80.277 207.709 80.68 207.435C81.852 206.615 83.045 205.787 84.328 205.164C90.109 202.353 96.293 200.971 102.648 200.314C103.834 200.192 105.056 200.232 106.237 200.392C107.174 200.521 108.084 200.924 108.319 202.34Z" fill="#868686"/>
</svg>
